<?xml version="1.0" encoding="iso-8859-1"?>
<!-- Generator: Adobe Illustrator 19.0.0, SVG Export Plug-In . SVG Version: 6.00 Build 0)  -->
<svg version="1.1" id="Layer_1" xmlns="http://www.w3.org/2000/svg" xmlns:xlink="http://www.w3.org/1999/xlink" x="0px" y="0px"
	 viewBox="0 0 578 238" style="enable-background:new 0 0 578 238;" xml:space="preserve">
<polygon id="XMLID_4_" style="fill:#000A51;" points="114.889,63.957 114.889,175.419 395.522,175.419 414.099,203.482 
	428.328,175.419 463.111,175.419 463.111,63.957 "/>
<g id="XMLID_31_">
	<path id="XMLID_32_" style="fill:#FFFFFF;" d="M185.055,84.939h13.201v70.105h-8.201v0.1l-36.802-47.303v47.203h-13.201V85.039
		h10.701l34.302,43.403V84.939z"/>
	<path id="XMLID_34_" style="fill:#FFFFFF;" d="M262.555,155.044h-52.403c0-23.302,0-46.703,0-70.005h52.403V97.84h-39.302v16.101
		h37.902v12.301h-37.902v15.801h39.302V155.044z"/>
	<path id="XMLID_36_" style="fill:#FFFFFF;" d="M349.355,155.044h-11.201l-8.7-22.002l-7.4-22.101l-7.301,22.301l-8.5,21.802
		h-11.201L269.35,85.039h14.801l16.501,50.504l17.001-50.504h8.601l17.501,50.504l16.001-50.504h14.801L349.355,155.044z"/>
	<path id="XMLID_38_" style="fill:#FFFFFF;" d="M425.852,101.94c-2.399-4-9-7.801-16.601-7.801c-9.801,0-14.501,4.101-14.501,9.301
		c0,6.1,7.2,7.8,15.601,8.8c14.602,1.8,28.202,5.601,28.202,22.301c0,15.602-13.801,22.302-29.401,22.302
		c-14.302,0-25.302-4.4-30.502-17.201l11-5.7c3.101,7.7,11.201,11.101,19.701,11.101c8.301,0,16.102-2.9,16.102-10.501
		c0-6.6-6.9-9.3-16.201-10.3c-14.301-1.7-27.502-5.501-27.502-21.202c0-14.4,14.201-20.301,27.102-20.401
		c10.901,0,22.202,3.1,27.502,13.901L425.852,101.94z"/>
</g>
<polygon id="XMLID_11_" style="fill:#000A51;" points="494.223,63.957 494.223,175.419 774.855,175.419 793.432,203.482 
	807.661,175.419 842.444,175.419 842.444,63.957 "/>
<g id="XMLID_22_">
	<path id="XMLID_23_" style="fill:#FFFFFF;" d="M564.389,84.939h13.2v70.105h-8.2v0.1l-36.803-47.303v47.203h-13.2V85.039h10.7
		l34.303,43.403V84.939z"/>
	<path id="XMLID_25_" style="fill:#FFFFFF;" d="M641.889,155.044h-52.403c0-23.302,0-46.703,0-70.005h52.403V97.84h-39.303v16.101
		h37.902v12.301h-37.902v15.801h39.303V155.044z"/>
	<path id="XMLID_27_" style="fill:#FFFFFF;" d="M728.688,155.044h-11.2l-8.701-22.002l-7.4-22.101l-7.3,22.301l-8.501,21.802h-11.2
		l-25.702-70.005h14.801l16.501,50.504l17.002-50.504h8.6l17.502,50.504l16.001-50.504h14.801L728.688,155.044z"/>
	<path id="XMLID_29_" style="fill:#FFFFFF;" d="M805.186,101.94c-2.399-4-9-7.801-16.601-7.801c-9.801,0-14.501,4.101-14.501,9.301
		c0,6.1,7.2,7.8,15.601,8.8c14.602,1.8,28.202,5.601,28.202,22.301c0,15.602-13.801,22.302-29.401,22.302
		c-14.302,0-25.302-4.4-30.502-17.201l11-5.7c3.101,7.7,11.201,11.101,19.701,11.101c8.301,0,16.102-2.9,16.102-10.501
		c0-6.6-6.9-9.3-16.201-10.3c-14.301-1.7-27.502-5.501-27.502-21.202c0-14.4,14.201-20.301,27.102-20.401
		c10.901,0,22.202,3.1,27.502,13.901L805.186,101.94z"/>
</g>
<polygon id="XMLID_13_" style="fill:#000A51;" points="-264.444,63.957 -264.444,175.419 16.188,175.419 34.765,203.482 
	48.995,175.419 83.777,175.419 83.777,63.957 "/>
<g id="XMLID_3_">
	<path id="XMLID_9_" style="fill:#FFFFFF;" d="M-194.278,84.939h13.201v70.105h-8.201v0.1l-36.802-47.303v47.203h-13.201V85.039
		h10.701l34.302,43.403V84.939z"/>
	<path id="XMLID_15_" style="fill:#FFFFFF;" d="M-116.778,155.044h-52.403c0-23.302,0-46.703,0-70.005h52.403V97.84h-39.302v16.101
		h37.902v12.301h-37.902v15.801h39.302V155.044z"/>
	<path id="XMLID_18_" style="fill:#FFFFFF;" d="M-29.978,155.044h-11.201l-8.701-22.002l-7.4-22.101l-7.3,22.301l-8.5,21.802
		h-11.201l-25.702-70.005h14.801l16.501,50.504l17.001-50.504h8.6l17.501,50.504l16.001-50.504h14.801L-29.978,155.044z"/>
	<path id="XMLID_20_" style="fill:#FFFFFF;" d="M46.519,101.94c-2.399-4-9-7.801-16.601-7.801c-9.801,0-14.501,4.101-14.501,9.301
		c0,6.1,7.2,7.8,15.601,8.8c14.602,1.8,28.202,5.601,28.202,22.301c0,15.602-13.801,22.302-29.401,22.302
		c-14.302,0-25.302-4.4-30.502-17.201l11-5.7c3.101,7.7,11.201,11.101,19.701,11.101c8.301,0,16.102-2.9,16.102-10.501
		c0-6.6-6.9-9.3-16.201-10.3c-14.301-1.7-27.502-5.501-27.502-21.202c0-14.4,14.201-20.301,27.102-20.401
		c10.901,0,22.202,3.1,27.502,13.901L46.519,101.94z"/>
</g>
<rect id="XMLID_2_" x="93.881" y="-1.083" style="fill:#F7941E;" width="10.672" height="260.079"/>
<rect id="XMLID_5_" x="473.328" y="-1.083" style="fill:#F7941E;" width="10.672" height="260.079"/>
<rect id="XMLID_6_" x="-20.625" y="41.502" style="fill:#F7941E;" width="619.249" height="10.672"/>
<polygon id="XMLID_10_" style="fill:#F7941E;" points="431.821,186.502 426.41,197.174 606.625,197.174 606.625,186.502 "/>
<polygon id="XMLID_8_" style="fill:#F7941E;" points="-12.625,186.502 -12.625,197.174 21.59,197.174 14.525,186.502 "/>
<polygon id="XMLID_17_" style="fill:#F7941E;" points="394.113,186.502 51.375,186.502 45.964,197.174 401.178,197.174 "/>
</svg>
