<?xml version="1.0" encoding="utf-8"?>
<!-- Generator: Adobe Illustrator 17.0.0, SVG Export Plug-In . SVG Version: 6.00 Build 0)  -->
<!DOCTYPE svg PUBLIC "-//W3C//DTD SVG 1.1//EN" "http://www.w3.org/Graphics/SVG/1.1/DTD/svg11.dtd">
<svg version="1.1" id="Layer_1" xmlns="http://www.w3.org/2000/svg" xmlns:xlink="http://www.w3.org/1999/xlink" x="0px" y="0px"
	 width="56.693px" height="56.693px" viewBox="0 0 56.693 56.693" enable-background="new 0 0 56.693 56.693" xml:space="preserve">
<g>
	<g>
		<path fill="#FFFFFF" d="M23,45.998l-1.977,6.027c0,0.44,0.438,0.797,0.977,0.797h13.002c0.539,0,0.977-0.356,0.977-0.797
			L34,45.998H23z"/>
	</g>
	<g>
		<path fill="#FFFFFF" d="M49.789,5.811H7.211c-1.959,0-3.547,1.588-3.547,3.546V40c0,1.959,1.588,3.547,3.547,3.547h42.578
			c1.961,0,3.549-1.588,3.549-3.547V9.356C53.338,7.398,51.75,5.811,49.789,5.811z M49.059,38.995H7.767V9.25h41.292V38.995z"/>
	</g>
	<g>
		<path fill="#FFFFFF" d="M19.087,25.5l1.864,0.492c0.057,0.262,0.126,0.519,0.208,0.771l-1.369,1.358
			c-0.44,0.468-0.717,0.995-0.407,1.527c0.308,0.536,0.937,0.559,1.526,0.408l1.869-0.508c0.176,0.197,0.363,0.382,0.559,0.559
			l-0.509,1.87c-0.147,0.625-0.125,1.217,0.408,1.526c0.536,0.307,1.092,0.014,1.526-0.409l1.359-1.37
			c0.252,0.082,0.51,0.151,0.773,0.208l0.491,1.864c0.186,0.615,0.5,1.118,1.116,1.118c0.617,0,0.953-0.534,1.117-1.118l0.492-1.864
			c0.263-0.056,0.521-0.126,0.773-0.208l1.359,1.369c0.467,0.442,0.992,0.718,1.526,0.411c0.535-0.31,0.558-0.938,0.409-1.526
			l-0.509-1.871c0.197-0.176,0.383-0.362,0.559-0.558l1.868,0.508c0.626,0.148,1.218,0.126,1.527-0.408
			c0.31-0.532,0.016-1.09-0.409-1.527l-1.37-1.358c0.083-0.252,0.152-0.509,0.208-0.771l1.865-0.492
			c0.615-0.184,1.118-0.5,1.118-1.116c0-0.619-0.533-0.953-1.118-1.118l-1.865-0.492c-0.056-0.261-0.125-0.52-0.208-0.771
			l1.37-1.358c0.442-0.468,0.719-0.993,0.409-1.527c-0.309-0.534-0.937-0.558-1.527-0.409l-1.868,0.509
			c-0.176-0.196-0.362-0.382-0.559-0.559l0.509-1.87c0.148-0.623,0.125-1.218-0.409-1.524c-0.535-0.309-1.09-0.017-1.526,0.408
			l-1.359,1.37c-0.252-0.083-0.509-0.152-0.773-0.208l-0.492-1.867c-0.186-0.613-0.5-1.116-1.117-1.116
			c-0.616,0-0.951,0.532-1.116,1.116l-0.491,1.867c-0.263,0.055-0.521,0.125-0.773,0.208l-1.357-1.37
			c-0.469-0.439-0.992-0.716-1.528-0.408c-0.534,0.306-0.558,0.937-0.408,1.524l0.51,1.87c-0.197,0.178-0.384,0.363-0.56,0.559
			l-1.869-0.509c-0.625-0.148-1.218-0.125-1.526,0.409c-0.31,0.534-0.016,1.09,0.407,1.527l1.369,1.358
			c-0.082,0.251-0.151,0.51-0.208,0.771l-1.864,0.492c-0.615,0.185-1.118,0.5-1.118,1.118C17.969,25,18.502,25.335,19.087,25.5z
			 M28.501,21.194c1.763,0,3.192,1.428,3.192,3.19c0,1.762-1.43,3.19-3.192,3.19c-1.761,0-3.191-1.428-3.191-3.19
			C25.31,22.622,26.74,21.194,28.501,21.194z"/>
	</g>
</g>
</svg>
