<?xml version="1.0" encoding="utf-8"?>
<!-- Generator: Adobe Illustrator 17.0.0, SVG Export Plug-In . SVG Version: 6.00 Build 0)  -->
<!DOCTYPE svg PUBLIC "-//W3C//DTD SVG 1.1//EN" "http://www.w3.org/Graphics/SVG/1.1/DTD/svg11.dtd">
<svg version="1.1" id="Layer_1" xmlns="http://www.w3.org/2000/svg" xmlns:xlink="http://www.w3.org/1999/xlink" x="0px" y="0px"
	 width="56.693px" height="56.693px" viewBox="0 0 56.693 56.693" enable-background="new 0 0 56.693 56.693" xml:space="preserve">
<g>
	<g>
		<path fill="#474A56" d="M23.012,45.998l-1.977,6.027c0,0.44,0.438,0.797,0.977,0.797h13.002c0.539,0,0.977-0.356,0.977-0.797
			l-1.979-6.027H23.012z"/>
	</g>
	<g>
		<path fill="#474A56" d="M49.801,5.811H7.223c-1.959,0-3.547,1.588-3.547,3.546V40c0,1.959,1.588,3.547,3.547,3.547h42.578
			c1.961,0,3.549-1.588,3.549-3.547V9.356C53.35,7.398,51.762,5.811,49.801,5.811z M49.072,38.995H7.78V9.25h41.292V38.995z"/>
	</g>
	<g>
		<path fill="#474A56" d="M18.799,25.082l2.9,1.953l3.531-2.661l2.336,2.451l4.145-0.001c0.869,2.301,3.086,3.941,5.689,3.941
			c3.362,0,6.087-2.726,6.087-6.087c0.001-3.362-2.725-6.088-6.087-6.087c-2.445,0-4.548,1.443-5.515,3.524l-17.482-0.002
			l-0.863,2.133l2.573,2.392L18.799,25.082z M39.857,23.244c0.792,0,1.434,0.643,1.434,1.435c0,0.79-0.642,1.433-1.433,1.433
			c-0.792,0-1.435-0.642-1.436-1.434C38.424,23.887,39.065,23.245,39.857,23.244z"/>
	</g>
</g>
</svg>
