<?xml version="1.0" encoding="utf-8"?>
<!-- Generator: Adobe Illustrator 17.0.0, SVG Export Plug-In . SVG Version: 6.00 Build 0)  -->
<!DOCTYPE svg PUBLIC "-//W3C//DTD SVG 1.1//EN" "http://www.w3.org/Graphics/SVG/1.1/DTD/svg11.dtd">
<svg version="1.1" id="Layer_1" xmlns="http://www.w3.org/2000/svg" xmlns:xlink="http://www.w3.org/1999/xlink" x="0px" y="0px"
	 width="56.693px" height="56.693px" viewBox="0 0 56.693 56.693" enable-background="new 0 0 56.693 56.693" xml:space="preserve">
<path fill="#474A56" d="M53.346,25.028C52.819,14.877,42.153,6.767,28.812,6.47c-0.159-0.01-0.325-0.012-0.487-0.012L28.03,6.459
	c-13.519,0-24.358,8.097-24.675,18.42c-0.006,0.113-0.007,0.248-0.007,0.358c0.013,5.83,3.574,11.423,9.553,15.044
	c-0.417,0.718-1.048,1.712-1.849,2.916c-0.547,0.836-1.171,1.8-1.667,2.678l-0.17,0.322c-0.389,0.726-0.754,1.411-0.796,2.337
	c-0.181,0.991,0.665,2.478,1.854,2.733l0.138,0.035c0.225,0.052,0.429,0.075,0.661,0.075h0.014l0.049-0.002
	c1.194-0.076,2.096-0.553,3.138-1.102l0.577-0.302c1.302-0.716,2.881-1.683,4.272-2.536l0.25-0.153
	c0.637-0.389,1.268-0.774,1.876-1.138c1.131-0.685,2.031-1.201,2.673-1.532c0.307-0.156,0.575-0.277,0.826-0.379
	c1.025,0.123,2.069,0.198,3.198,0.229l0.737,0.006c13.518-0.004,24.357-8.104,24.676-18.448l0.02-0.991H53.346z M17.039,42.317
	l0.142-0.268c0.404-0.753,0.785-1.461,0.835-2.487c0.072-0.723-0.331-1.978-1.432-2.492c-5.414-2.788-8.641-7.212-8.632-11.835
	c0-0.067,0-0.125,0.004-0.208c0.084-7.702,9.089-13.968,20.074-13.968c0.213,0,0.411,0.003,0.62,0.012
	c11.182,0.242,20.204,6.796,20.111,14.615l0,0.243c-0.087,7.683-9.092,13.933-20.077,13.933c-0.212,0-0.43-0.002-0.655-0.007
	c-1.01-0.022-2.017-0.097-2.949-0.215c-0.107-0.024-0.284-0.04-0.515-0.037c-1.177,0.079-2.033,0.538-3.024,1.07l-0.636,0.338
	c-1.164,0.647-2.539,1.49-3.869,2.303l-0.188,0.115c-0.253,0.155-0.506,0.31-0.758,0.464C16.437,43.348,16.755,42.827,17.039,42.317
	z"/>
</svg>
