<?xml version="1.0" encoding="utf-8"?>
<!-- Generator: Adobe Illustrator 18.1.0, SVG Export Plug-In . SVG Version: 6.00 Build 0)  -->
<!DOCTYPE svg PUBLIC "-//W3C//DTD SVG 1.1//EN" "http://www.w3.org/Graphics/SVG/1.1/DTD/svg11.dtd">
<svg version="1.1" id="Layer_1" xmlns="http://www.w3.org/2000/svg" xmlns:xlink="http://www.w3.org/1999/xlink" x="0px" y="0px"
	 viewBox="-7058 2806.6 56.7 56.7" enable-background="new -7058 2806.6 56.7 56.7" xml:space="preserve">
<path fill="#474A56" d="M-7010,2846l-10.1-10.1l10.1-10.1c0.2-0.2,0.3-0.5,0.3-0.7c0-0.3-0.1-0.5-0.3-0.7l-7.3-7.3
	c-0.4-0.4-1.1-0.4-1.5,0l-10.1,10.1l-10.1-10.1c-0.4-0.4-1.1-0.4-1.5,0l-7.4,7.4c-0.4,0.4-0.4,1.1,0,1.5l10.1,10.1l-10,10
	c-0.4,0.4-0.4,1.1,0,1.5l7.3,7.3c0.4,0.4,1.1,0.4,1.5,0l10-10l10.1,10.1c0.2,0.2,0.5,0.3,0.7,0.3s0.5-0.1,0.7-0.3l7.4-7.4
	c0.2-0.2,0.3-0.5,0.3-0.7C-7009.7,2846.4-7009.8,2846.2-7010,2846z"/>
</svg>
