<?xml version="1.0" encoding="utf-8"?>
<!-- Generator: Adobe Illustrator 16.0.4, SVG Export Plug-In . SVG Version: 6.00 Build 0)  -->
<!DOCTYPE svg PUBLIC "-//W3C//DTD SVG 1.1//EN" "http://www.w3.org/Graphics/SVG/1.1/DTD/svg11.dtd">
<svg version="1.1" id="Layer_1" xmlns="http://www.w3.org/2000/svg" xmlns:xlink="http://www.w3.org/1999/xlink" x="0px" y="0px"
	 width="56.693px" height="56.693px" viewBox="0 0 56.693 56.693" enable-background="new 0 0 56.693 56.693" xml:space="preserve">
<g>
	<path fill="#474A56" d="M51.526,11.071H40.974c-0.568,0-1.029,0.461-1.029,1.029v33.708c0,0.57,0.461,1.029,1.029,1.029h10.553
		c0.569,0,1.03-0.459,1.03-1.029V12.1C52.557,11.532,52.096,11.071,51.526,11.071z M42.004,20.328v-2.923h8.493v2.923H42.004z
		 M50.497,13.13v2.478h-8.493V13.13H50.497z M42.004,44.778V22.125h8.493v22.653H42.004z"/>
	<circle fill="#474A56" cx="43.688" cy="30.871" r="0.827"/>
	<path fill="#474A56" d="M35.125,14.258H4.637c-0.858,0-1.559,0.724-1.559,1.613v23.616c0,0.891,0.7,1.613,1.559,1.613h10.857
		l-1.324,4.09c-0.36,0.936-0.151,1.545,1.792,1.545h4.217l0,0h4.217c1.943,0,2.151-0.609,1.792-1.545l-1.325-4.09h10.263
		c0.859,0,1.559-0.723,1.559-1.613V15.872C36.684,14.982,35.984,14.258,35.125,14.258z M20.179,39.481
		c-0.457,0-0.83-0.371-0.83-0.828c0-0.459,0.373-0.83,0.83-0.83c0.458,0,0.83,0.371,0.83,0.83
		C21.009,39.11,20.637,39.481,20.179,39.481z M34.679,36.296H5.084V17.178c0-0.545,0.438-0.99,0.978-0.99h27.64
		c0.538,0,0.978,0.445,0.978,0.99V36.296z"/>
</g>
</svg>
