<?xml version="1.0" encoding="utf-8"?>
<!-- Generator: Adobe Illustrator 18.1.0, SVG Export Plug-In . SVG Version: 6.00 Build 0)  -->
<!DOCTYPE svg PUBLIC "-//W3C//DTD SVG 1.1//EN" "http://www.w3.org/Graphics/SVG/1.1/DTD/svg11.dtd">
<svg version="1.1" id="Layer_1" xmlns="http://www.w3.org/2000/svg" xmlns:xlink="http://www.w3.org/1999/xlink" x="0px" y="0px"
	 viewBox="-7058 2806.6 56.7 56.7" enable-background="new -7058 2806.6 56.7 56.7" xml:space="preserve">
<g>
	<path fill="#474A56" d="M-7020.3,2847.6h-20.2c-0.4,0-0.7,0.3-0.7,0.7c0,0.4,0.3,0.7,0.7,0.7h20.2c0.4,0,0.7-0.3,0.7-0.7
		C-7019.6,2847.9-7019.9,2847.6-7020.3,2847.6z"/>
	<path fill="#474A56" d="M-7020.3,2842.1h-20.2c-0.4,0-0.7,0.3-0.7,0.7s0.3,0.7,0.7,0.7h20.2c0.4,0,0.7-0.3,0.7-0.7
		S-7019.9,2842.1-7020.3,2842.1z"/>
	<path fill="#474A56" d="M-7010.7,2819l-7.2-7.1c-0.3-0.3-0.7-0.5-1.2-0.5h-28.4c-0.9,0-1.7,0.7-1.7,1.7v45.8c0,0.9,0.7,1.7,1.7,1.7
		h35.6c0.9,0,1.7-0.7,1.7-1.7v-38.7C-7010.2,2819.8-7010.4,2819.3-7010.7,2819z M-7045.8,2857.2v-42.4h25.7v5.4c0,0.6,0.4,1,1,1h5.5
		v36L-7045.8,2857.2L-7045.8,2857.2z"/>
	<path fill="#474A56" d="M-7034.1,2836.4c0.3,0.4,0.7,0.6,1.2,0.8c0.5,0.2,1.1,0.3,1.8,0.3c0.6,0,1.1-0.1,1.6-0.2
		c0.5-0.2,0.8-0.4,1.1-0.7c0.2-0.2,0.2-0.4,0.2-0.6c0-0.2-0.1-0.4-0.2-0.5c-0.1-0.1-0.3-0.2-0.5-0.3c-0.2,0-0.5,0-0.7,0.1
		c-0.1,0.1-0.3,0.2-0.6,0.2c-0.2,0.1-0.5,0.1-0.8,0.1c-0.6,0-1.1-0.2-1.4-0.5c-0.3-0.4-0.5-0.9-0.5-1.5v-1.3c0-0.6,0.2-1.1,0.5-1.5
		c0.3-0.4,0.8-0.5,1.4-0.5c0.3,0,0.6,0,0.8,0.1c0.2,0.1,0.4,0.2,0.6,0.3c0.3,0.2,0.6,0.2,0.8,0.1c0.2-0.1,0.4-0.2,0.5-0.4
		c0.1-0.2,0.2-0.4,0.1-0.6c0-0.2-0.1-0.4-0.2-0.6c-0.3-0.3-0.6-0.5-1.1-0.6c-0.4-0.2-1-0.2-1.6-0.2c-0.7,0-1.3,0.1-1.8,0.3
		c-0.5,0.2-0.9,0.5-1.2,0.8c-0.3,0.4-0.6,0.8-0.7,1.2c-0.1,0.5-0.2,1-0.2,1.5v1.5c0,0.5,0.1,1,0.2,1.5
		C-7034.7,2835.7-7034.4,2836.1-7034.1,2836.4z"/>
	<path fill="#474A56" d="M-7019.8,2828.4c-0.3-0.1-0.5,0-0.8,0.1c-0.2,0.1-0.4,0.3-0.4,0.5l-2,6l-2-6c-0.1-0.2-0.2-0.4-0.4-0.5
		c-0.2-0.1-0.5-0.1-0.8-0.1c-0.3,0.1-0.5,0.2-0.7,0.4c-0.1,0.2-0.2,0.4-0.1,0.6l2.8,7.3c0.1,0.2,0.2,0.4,0.4,0.5
		c0.2,0.1,0.5,0.2,0.7,0.2c0.3,0,0.5-0.1,0.7-0.2c0.2-0.1,0.3-0.3,0.4-0.5l2.8-7.3c0.1-0.2,0-0.4-0.1-0.6
		C-7019.2,2828.7-7019.5,2828.5-7019.8,2828.4z"/>
</g>
</svg>
