<?xml version="1.0" encoding="utf-8"?>
<!-- Generator: Adobe Illustrator 18.1.0, SVG Export Plug-In . SVG Version: 6.00 Build 0)  -->
<!DOCTYPE svg PUBLIC "-//W3C//DTD SVG 1.1//EN" "http://www.w3.org/Graphics/SVG/1.1/DTD/svg11.dtd">
<svg version="1.1" id="Layer_1" xmlns="http://www.w3.org/2000/svg" xmlns:xlink="http://www.w3.org/1999/xlink" x="0px" y="0px"
	 viewBox="-7058 2806.6 56.7 56.7" enable-background="new -7058 2806.6 56.7 56.7" xml:space="preserve">
<g>
	<path fill="#474A56" d="M-7029.9,2815.1c-13.6,0-24.7,11.1-24.7,24.7c0,5.8,2,11.4,5.7,15.8c0.3,0.4,0.8,0.6,1.3,0.6h35.3
		c0.5,0,1-0.2,1.3-0.6c3.7-4.4,5.7-10,5.7-15.8C-7005.2,2826.2-7016.3,2815.1-7029.9,2815.1z M-7013.1,2852.8h-33.7
		c-2.9-3.7-4.4-8.3-4.4-13c0-11.7,9.5-21.3,21.3-21.3c11.7,0,21.3,9.5,21.3,21.3C-7008.7,2844.5-7010.2,2849.1-7013.1,2852.8z"/>
	<path fill="#474A56" d="M-7028,2842.6L-7028,2842.6l-11.1-9.2l0,0c-0.3-0.3-0.7-0.4-1.2-0.4c-1,0-1.8,0.8-1.8,1.8
		c0,0.4,0.1,0.8,0.4,1.1l0,0l9.2,11.1c0.1,0.2,0.2,0.4,0.4,0.5l0,0l0,0c0.6,0.6,1.4,1,2.3,1c1.8,0,3.2-1.4,3.2-3.2
		C-7026.6,2844.2-7027.2,2843.2-7028,2842.6z"/>
	<path fill="#474A56" d="M-7046.2,2839h-1.8c-0.6,0-1,0.5-1,1c0,0.6,0.5,1,1,1h1.8c0.6,0,1-0.5,1-1
		C-7045.1,2839.5-7045.6,2839-7046.2,2839z"/>
	<path fill="#474A56" d="M-7041.1,2829.4c0.4-0.4,0.4-1.1,0-1.5l-1.3-1.3c-0.4-0.4-1.1-0.4-1.5,0c-0.4,0.4-0.4,1.1,0,1.5l1.3,1.3
		c0.2,0.2,0.5,0.3,0.7,0.3C-7041.5,2829.7-7041.3,2829.6-7041.1,2829.4z"/>
	<path fill="#474A56" d="M-7029.7,2824.4c0.6,0,1-0.5,1-1v-1.7c0-0.6-0.5-1-1-1c-0.6,0-1,0.5-1,1v1.7
		C-7030.7,2823.9-7030.3,2824.4-7029.7,2824.4z"/>
	<path fill="#474A56" d="M-7017.2,2826.6l-1.3,1.3c-0.4,0.4-0.4,1.1,0,1.5c0.2,0.2,0.5,0.3,0.7,0.3c0.3,0,0.5-0.1,0.7-0.3l1.3-1.3
		c0.4-0.4,0.4-1.1,0-1.5C-7016.1,2826.2-7016.8,2826.2-7017.2,2826.6z"/>
	<path fill="#474A56" d="M-7011.9,2839h-1.9c-0.6,0-1,0.5-1,1c0,0.6,0.5,1,1,1h1.9c0.6,0,1-0.5,1-1
		C-7010.9,2839.5-7011.4,2839-7011.9,2839z"/>
</g>
</svg>
