<svg xmlns="http://www.w3.org/2000/svg" viewBox="0 0 24 24"><defs><style>.cls-1{fill:#f26868;}.cls-2{fill:#fff;}.cls-3{fill:none;}</style></defs><title>215_down_vote_dislike</title><g id="Layer_2" data-name="Layer 2"><g id="Layer_1-2" data-name="Layer 1"><circle class="cls-1" cx="12.0476" cy="11.9925" r="11"/><path class="cls-2" d="M17.373,11.9412a.8716.8716,0,0,0,.3643-.7266.8463.8463,0,0,0-.752-.87.89.89,0,0,0,.25-.6318.8467.8467,0,0,0-.834-.8755.8448.8448,0,0,0,.2529-.59c0-.3462-.249-.75-.95-.75a20.22,20.22,0,0,0-5.88.8618.125.125,0,0,0-.085.1182V13.011a.1245.1245,0,0,0,.0479.0981c.0244.02,2.457,1.96,2.2842,3.9365-.0462.533.2314.8032.5713.8032a.9991.9991,0,0,0,.6572-.3027c.63-.5908,1.01-1.9351.2334-3.9561h3.4063a.8427.8427,0,0,0,.875-.8745A.8683.8683,0,0,0,17.373,11.9412Z"/><rect class="cls-2" x="6.25" y="7.2302" width="2.5" height="6.5" rx="0.25" ry="0.25"/><rect class="cls-3" width="24" height="24"/></g></g></svg>