<?xml version="1.0" encoding="utf-8"?>
<!-- Generator: Adobe Illustrator 17.0.0, SVG Export Plug-In . SVG Version: 6.00 Build 0)  -->
<!DOCTYPE svg PUBLIC "-//W3C//DTD SVG 1.1//EN" "http://www.w3.org/Graphics/SVG/1.1/DTD/svg11.dtd">
<svg version="1.1" id="Layer_1" xmlns="http://www.w3.org/2000/svg" xmlns:xlink="http://www.w3.org/1999/xlink" x="0px" y="0px"
	 width="56.693px" height="56.693px" viewBox="0 0 56.693 56.693" enable-background="new 0 0 56.693 56.693" xml:space="preserve">
<g>
	<path fill="#474A56" d="M51.762,16.595h-39.86c-0.822,0-1.489,0.665-1.489,1.487v28.512c0,0.822,0.667,1.488,1.489,1.488h39.86
		c0.821,0,1.487-0.666,1.487-1.488V18.082C53.25,17.26,52.584,16.595,51.762,16.595z M50.275,45.106H13.388V19.57h36.887V45.106z"/>
	<circle fill="#474A56" cx="23.014" cy="27.97" r="3.502"/>
	<path fill="#474A56" d="M43.66,29.962l-2.797,3.884l-5.324-7.578l-6.574,10.187c0,0-10.959-2.674-12.764,4.967h31.328L43.66,29.962
		z"/>
	<path fill="#474A56" d="M6.503,12.684h36.887v1.582h2.975v-3.068c0-0.823-0.665-1.488-1.486-1.488H5.016
		c-0.822,0-1.489,0.665-1.489,1.488v28.512c0,0.82,0.667,1.486,1.489,1.486h3.068v-2.975H6.503V12.684z"/>
</g>
</svg>
