<?xml version="1.0" encoding="utf-8"?>
<!-- Generator: Adobe Illustrator 17.0.0, SVG Export Plug-In . SVG Version: 6.00 Build 0)  -->
<!DOCTYPE svg PUBLIC "-//W3C//DTD SVG 1.1//EN" "http://www.w3.org/Graphics/SVG/1.1/DTD/svg11.dtd">
<svg version="1.1" id="Layer_1" xmlns="http://www.w3.org/2000/svg" xmlns:xlink="http://www.w3.org/1999/xlink" x="0px" y="0px"
	 width="56.693px" height="56.693px" viewBox="0 0 56.693 56.693" enable-background="new 0 0 56.693 56.693" xml:space="preserve">
<g>
	<path fill="#474A56" d="M52.563,40.327c-5.389-2.084-11.372-3.697-11.874-5.31V32.22c5.382-0.014,7.517-1.754,7.517-1.754
		c-2.245-1.275-2.956-10.188-2.956-10.188c0-2.73-1.15-5.173-2.957-6.841c-0.681-0.789-1.615-1.384-2.819-1.738
		c-0.903-0.337-1.871-0.528-2.883-0.528c-1.077,0-2.101,0.216-3.051,0.593c-0.975,0.322-1.773,0.81-2.396,1.439
		c-0.056,0.048-0.105,0.102-0.16,0.152c0.538,1.263,0.828,2.721,0.828,4.364v3.334c0.441,0.813,0.677,1.726,0.677,2.648
		c0,1.473-0.576,2.869-1.578,3.896c-0.509,1.535-1.218,2.926-2.095,4.108c0.097,0.078,0.204,0.161,0.32,0.248
		c0.94,0.156,2.05,0.263,3.355,0.267v1.796c1.973,1.073,4.478,2.265,7.227,3.328c1.493,0.573,2.495,2.039,2.495,3.646v4.586
		c0,0.46-0.094,0.895-0.239,1.305H52.14c0.655,0,1.186-0.539,1.186-1.202v-4.229C53.326,40.951,53.022,40.502,52.563,40.327z"/>
	<path fill="#474A56" d="M38.784,39.771c-0.613-0.237-1.233-0.49-1.853-0.752c-0.062-0.026-0.123-0.051-0.184-0.077
		c-0.601-0.256-1.2-0.521-1.792-0.793c-0.067-0.031-0.136-0.062-0.203-0.094c-0.596-0.275-1.182-0.558-1.752-0.842
		c-0.047-0.023-0.094-0.047-0.142-0.071c-0.584-0.293-1.153-0.589-1.694-0.885c-2.83-1.544-4.959-3.061-5.261-4.028v-1.102
		c0.026-0.027,0.049-0.061,0.075-0.089l0,0c0.004-0.004,0.007-0.01,0.012-0.014c0.582-0.614,1.105-1.337,1.55-2.156
		c0.032-0.06,0.057-0.127,0.089-0.188c0.185-0.357,0.366-0.723,0.522-1.112c0.185-0.46,0.349-0.939,0.487-1.438
		c0.752-0.527,1.249-1.418,1.249-2.429c0-0.718-0.262-1.368-0.677-1.879v-4.104c0-0.318-0.018-0.627-0.045-0.93
		c-0.002-0.025-0.006-0.049-0.008-0.073c-0.358-3.685-2.745-6.136-7.702-6.136c-5.253,0-7.755,2.9-7.755,7.139v4.104
		c-0.415,0.51-0.675,1.16-0.675,1.878c0,1.01,0.495,1.898,1.247,2.429c0.566,2.026,1.523,3.756,2.735,4.997v1.102
		c-0.543,1.745-7.034,5.281-12.879,7.542c-0.498,0.192-0.828,0.678-0.828,1.22v4.586c0,0.72,0.577,1.305,1.286,1.305h16.449h17.287
		c0.711,0,1.287-0.585,1.287-1.305v-4.586C39.612,40.449,39.282,39.962,38.784,39.771z"/>
</g>
</svg>
