<?xml version="1.0" encoding="utf-8"?>
<!-- Generator: Adobe Illustrator 17.0.0, SVG Export Plug-In . SVG Version: 6.00 Build 0)  -->
<!DOCTYPE svg PUBLIC "-//W3C//DTD SVG 1.1//EN" "http://www.w3.org/Graphics/SVG/1.1/DTD/svg11.dtd">
<svg version="1.1" id="Layer_1" xmlns="http://www.w3.org/2000/svg" xmlns:xlink="http://www.w3.org/1999/xlink" x="0px" y="0px"
	 width="56.693px" height="56.693px" viewBox="0 0 56.693 56.693" enable-background="new 0 0 56.693 56.693" xml:space="preserve">
<g>
	<path fill="#474A56" d="M28.649,28.414c-0.271-0.269-0.708-0.269-0.977,0l-7.423,7.423c-0.269,0.27-0.269,0.706,0,0.976
		c0.134,0.134,0.311,0.202,0.488,0.202c0.176,0,0.352-0.068,0.486-0.202l7.425-7.424C28.918,29.12,28.918,28.684,28.649,28.414z"/>
	<path fill="#474A56" d="M31.573,31.339c-0.271-0.269-0.706-0.269-0.975,0l-7.423,7.423c-0.27,0.269-0.27,0.706,0,0.975
		c0.134,0.135,0.31,0.202,0.487,0.202c0.176,0,0.354-0.067,0.487-0.202l7.423-7.422C31.842,32.045,31.842,31.608,31.573,31.339z"/>
	<path fill="#474A56" d="M33.522,34.265l-7.421,7.422c-0.271,0.27-0.271,0.706,0,0.975c0.134,0.135,0.311,0.202,0.487,0.202
		c0.176,0,0.352-0.067,0.486-0.202l7.424-7.422c0.269-0.269,0.269-0.706,0-0.975C34.229,33.995,33.791,33.995,33.522,34.265z"/>
	<path fill="#474A56" d="M51.739,21.148L36.005,5.414c-1.533-1.533-4.027-1.533-5.561,0.001L5.758,30.1
		c-0.473,0.474-0.475,1.241-0.002,1.718l1.122,1.13l-2.551,2.544v0.001c-0.226,0.227-0.356,0.536-0.356,0.858
		c0,0.324,0.129,0.633,0.356,0.861l15.674,15.673c0.838,0.837,3.114,2.449,6.195-0.634L51.739,26.71
		C53.274,25.176,53.272,22.681,51.739,21.148z M23.634,51.246c-1.098,0.735-1.609,0.222-1.912-0.08L6.909,36.353l1.687-1.682
		l15.105,15.107C23.828,50.029,24.109,50.733,23.634,51.246z M50.02,24.989L26.007,49.002c-0.093-0.236-0.197-0.452-0.302-0.617
		c-0.048-0.077-0.104-0.147-0.17-0.211L9.459,32.096l-1.123-1.133l23.829-23.83c0.585-0.584,1.537-0.584,2.122,0L50.02,22.869
		C50.605,23.454,50.605,24.405,50.02,24.989z"/>
	<path fill="#474A56" d="M36.232,14.978l-2.935-2.937c-0.131-0.129-0.359-0.129-0.488,0L14.375,30.475
		c-0.135,0.134-0.135,0.353,0,0.487l2.938,2.938C17.376,33.964,17.463,34,17.555,34c0.091,0,0.179-0.036,0.242-0.101l18.435-18.435
		C36.367,15.332,36.367,15.113,36.232,14.978z"/>
	<path fill="#474A56" d="M41.868,22.174c-0.254-0.433-0.572-0.842-0.954-1.225c-0.403-0.403-0.847-0.732-1.335-0.989
		c-0.485-0.257-0.998-0.396-1.541-0.418c-0.54-0.021-1.105,0.092-1.693,0.339c-0.589,0.248-1.188,0.674-1.793,1.281
		c-0.655,0.656-1.132,1.343-1.431,2.062c-0.296,0.718-0.433,1.439-0.408,2.163c0.025,0.725,0.205,1.433,0.539,2.125
		c0.336,0.693,0.801,1.34,1.402,1.941c0.601,0.6,1.214,1.01,1.838,1.226c0.626,0.216,1.242,0.288,1.848,0.214
		c0.607-0.074,1.188-0.269,1.75-0.581c0.561-0.313,1.072-0.701,1.537-1.166l0.288-0.288c0.167-0.166,0.252-0.326,0.256-0.478
		c0.003-0.152-0.041-0.275-0.131-0.371c-0.091-0.096-0.207-0.147-0.349-0.154c-0.142-0.006-0.276,0.054-0.398,0.177l-0.399,0.418
		c-0.401,0.402-0.826,0.724-1.272,0.964c-0.445,0.243-0.905,0.382-1.383,0.419c-0.477,0.037-0.957-0.041-1.439-0.233
		c-0.481-0.192-0.958-0.522-1.43-0.992c-0.514-0.515-0.907-1.056-1.18-1.626c-0.27-0.57-0.413-1.145-0.427-1.727
		c-0.014-0.582,0.102-1.157,0.343-1.727c0.242-0.569,0.623-1.114,1.142-1.634c0.535-0.532,1.041-0.892,1.52-1.082
		c0.479-0.189,0.925-0.264,1.337-0.223c0.412,0.04,0.79,0.168,1.138,0.385c0.347,0.217,0.652,0.459,0.919,0.724
		c0.291,0.292,0.539,0.59,0.748,0.896c0.205,0.307,0.353,0.613,0.437,0.92c0.082,0.306,0.091,0.61,0.026,0.91
		c-0.063,0.3-0.233,0.586-0.506,0.858l-1.895-2.339c-0.19-0.229-0.404-0.4-0.64-0.511c-0.236-0.111-0.481-0.165-0.737-0.163
		c-0.258,0.003-0.517,0.066-0.78,0.186c-0.263,0.121-0.514,0.299-0.746,0.534c-0.28,0.278-0.496,0.602-0.647,0.97
		c-0.152,0.368-0.222,0.759-0.213,1.17c0.01,0.412,0.108,0.836,0.297,1.272c0.189,0.436,0.491,0.862,0.904,1.277
		c0.297,0.297,0.592,0.516,0.883,0.659c0.291,0.143,0.572,0.218,0.841,0.228c0.269,0.009,0.521-0.039,0.756-0.144
		c0.234-0.105,0.45-0.254,0.641-0.446c0.136-0.136,0.244-0.28,0.321-0.432c0.078-0.151,0.133-0.3,0.166-0.446
		c0.035-0.146,0.052-0.282,0.048-0.408c-0.004-0.128-0.017-0.241-0.043-0.34l0.075-0.037c0.154,0.106,0.3,0.168,0.436,0.186
		c0.137,0.019,0.261,0.009,0.371-0.028c0.112-0.037,0.213-0.093,0.308-0.167c0.092-0.074,0.176-0.148,0.25-0.222
		c0.395-0.396,0.662-0.814,0.799-1.253c0.136-0.44,0.168-0.884,0.098-1.333C42.284,23.047,42.122,22.606,41.868,22.174z
		 M39.263,26.123c-0.015,0.127-0.044,0.25-0.088,0.367c-0.045,0.119-0.108,0.22-0.196,0.307c-0.245,0.248-0.511,0.327-0.792,0.237
		c-0.282-0.09-0.564-0.307-0.85-0.654c-0.428-0.514-0.688-0.976-0.78-1.383c-0.094-0.409,0.01-0.762,0.306-1.059
		c0.219-0.217,0.438-0.308,0.665-0.274c0.227,0.034,0.421,0.16,0.589,0.376l1.15,1.43c0.007,0.08,0.011,0.177,0.015,0.292
		C39.286,25.876,39.28,25.998,39.263,26.123z"/>
</g>
</svg>
