<?xml version="1.0" encoding="utf-8"?>
<!-- Generator: Adobe Illustrator 18.1.0, SVG Export Plug-In . SVG Version: 6.00 Build 0)  -->
<!DOCTYPE svg PUBLIC "-//W3C//DTD SVG 1.1//EN" "http://www.w3.org/Graphics/SVG/1.1/DTD/svg11.dtd">
<svg version="1.1" id="Layer_1" xmlns="http://www.w3.org/2000/svg" xmlns:xlink="http://www.w3.org/1999/xlink" x="0px" y="0px"
	 viewBox="-7058 2806.6 56.7 56.7" enable-background="new -7058 2806.6 56.7 56.7" xml:space="preserve">
<g>
	<path fill="#474A56" d="M-7025.9,2848h-20.8c-0.4,0-0.7,0.3-0.7,0.7c0,0.4,0.3,0.7,0.7,0.7h20.8c0.4,0,0.7-0.3,0.7-0.7
		C-7025.2,2848.3-7025.6,2848-7025.9,2848z"/>
	<path fill="#474A56" d="M-7025.9,2842.3h-20.8c-0.4,0-0.7,0.3-0.7,0.7c0,0.4,0.3,0.7,0.7,0.7h20.8c0.4,0,0.7-0.3,0.7-0.7
		C-7025.2,2842.6-7025.6,2842.3-7025.9,2842.3z"/>
	<path fill="#474A56" d="M-7025.9,2836.7h-20.8c-0.4,0-0.7,0.3-0.7,0.7c0,0.4,0.3,0.7,0.7,0.7h20.8c0.4,0,0.7-0.3,0.7-0.7
		C-7025.2,2837-7025.6,2836.7-7025.9,2836.7z"/>
	<path fill="#474A56" d="M-7046.7,2832.5h9.5c0.4,0,0.7-0.3,0.7-0.7c0-0.4-0.3-0.7-0.7-0.7h-9.5c-0.4,0-0.7,0.3-0.7,0.7
		C-7047.4,2832.2-7047.1,2832.5-7046.7,2832.5z"/>
	<path fill="#474A56" d="M-7025.3,2812.3c-0.3-0.3-0.8-0.5-1.2-0.5h-26.2c-0.9,0-1.7,0.8-1.7,1.7v45.6c0,0.9,0.8,1.7,1.7,1.7h32.8
		c0.9,0,1.7-0.8,1.7-1.7v-39.1c0-0.5-0.2-0.9-0.5-1.2L-7025.3,2812.3z M-7051,2857.4v-42.2h22.7v5.6c0,0.6,0.5,1,1,1h5.7v35.6
		L-7051,2857.4L-7051,2857.4z"/>
	<path fill="#474A56" d="M-7005.5,2814h-7.7c-0.6,0-1,0.5-1,1v35.1c0,0.1,0,0.3,0.1,0.4l3.9,9.1c0.2,0.4,0.5,0.6,0.9,0.6
		c0.4,0,0.8-0.2,0.9-0.6l3.9-9.1c0.1-0.1,0.1-0.3,0.1-0.4v-35.1C-7004.5,2814.5-7005,2814-7005.5,2814z M-7006.6,2850l-1.5,3.5h-2.7
		l-1.5-3.5v-33.9h2.5l0,0v32.2c0,0.4,0.3,0.7,0.7,0.7s0.7-0.3,0.7-0.7v-32.2l0,0h1.8V2850z"/>
</g>
</svg>
