<?xml version="1.0" encoding="utf-8"?>
<!-- Generator: Adobe Illustrator 16.0.4, SVG Export Plug-In . SVG Version: 6.00 Build 0)  -->
<!DOCTYPE svg PUBLIC "-//W3C//DTD SVG 1.1//EN" "http://www.w3.org/Graphics/SVG/1.1/DTD/svg11.dtd">
<svg version="1.1" id="Layer_1" xmlns="http://www.w3.org/2000/svg" xmlns:xlink="http://www.w3.org/1999/xlink" x="0px" y="0px"
	 width="56.693px" height="56.693px" viewBox="0 0 56.693 56.693" enable-background="new 0 0 56.693 56.693" xml:space="preserve">
<g>
	<path fill="#474A56" d="M51.86,12.221H4.378c-0.768,0-1.389,0.622-1.389,1.388v31.113c0,0.766,0.621,1.388,1.389,1.388H51.86
		c0.768,0,1.389-0.622,1.389-1.388V13.609C53.249,12.842,52.628,12.221,51.86,12.221z M50.474,43.333H5.767V14.998h44.707V43.333z"
		/>
	<path fill="#474A56" d="M37.481,30.538h8.453c0.383,0,0.695-0.312,0.695-0.695V19.085c0-0.383-0.312-0.694-0.695-0.694h-8.453
		c-0.383,0-0.693,0.311-0.693,0.694v10.758C36.788,30.227,37.099,30.538,37.481,30.538z"/>
	<path fill="#474A56" d="M10.945,27.38h5.299c0.575,0,1.042-0.466,1.042-1.042c0-0.575-0.467-1.041-1.042-1.041h-5.299
		c-0.575,0-1.041,0.466-1.041,1.041C9.904,26.915,10.37,27.38,10.945,27.38z"/>
	<path fill="#474A56" d="M10.945,32.935h15.539c0.575,0,1.041-0.467,1.041-1.041c0-0.576-0.466-1.043-1.041-1.043H10.945
		c-0.575,0-1.041,0.467-1.041,1.043C9.904,32.468,10.37,32.935,10.945,32.935z"/>
	<path fill="#474A56" d="M10.945,38.487h15.539c0.575,0,1.041-0.466,1.041-1.041c0-0.574-0.466-1.041-1.041-1.041H10.945
		c-0.575,0-1.041,0.467-1.041,1.041C9.904,38.021,10.37,38.487,10.945,38.487z"/>
</g>
</svg>
