<?xml version="1.0" encoding="utf-8"?>
<!-- Generator: Adobe Illustrator 16.0.4, SVG Export Plug-In . SVG Version: 6.00 Build 0)  -->
<!DOCTYPE svg PUBLIC "-//W3C//DTD SVG 1.1//EN" "http://www.w3.org/Graphics/SVG/1.1/DTD/svg11.dtd">
<svg version="1.1" id="Layer_1" xmlns="http://www.w3.org/2000/svg" xmlns:xlink="http://www.w3.org/1999/xlink" x="0px" y="0px"
	 width="56.693px" height="56.693px" viewBox="0 0 56.693 56.693" enable-background="new 0 0 56.693 56.693" xml:space="preserve">
<g>
	<path fill="#474A56" d="M48.731,22.306l-13.27-3.254c-0.326-0.08-0.652-0.089-0.966-0.048V8.399
		c0.714-0.577,1.116-1.499,0.966-2.47c-0.227-1.451-1.589-2.445-3.037-2.22L7.174,7.639c-1.452,0.227-2.444,1.586-2.22,3.036
		c0.107,0.684,0.467,1.26,0.967,1.66v39.698c0,0.916,0.742,1.66,1.661,1.66h25.253H47.8c0.917,0,1.661-0.744,1.661-1.66V27.164
		c0.587-0.352,1.044-0.924,1.22-1.643C51.03,24.094,50.157,22.656,48.731,22.306z M9.244,12.7l21.929-3.412v13.266v27.818H22.79
		v-8.322h-5.162v8.322H9.244V12.7z M46.137,50.371h-4.29v-4.254h-3.061v4.254h-4.29V24.63l11.641,2.62V50.371z"/>
	<rect x="17.628" y="14.052" fill="#474A56" width="5.162" height="5.032"/>
	<rect x="17.628" y="23.15" fill="#474A56" width="5.162" height="5.036"/>
	<rect x="17.628" y="32.25" fill="#474A56" width="5.162" height="5.031"/>
	<rect x="38.786" y="29.131" fill="#474A56" width="3.061" height="2.982"/>
	<rect x="38.786" y="34.523" fill="#474A56" width="3.061" height="2.982"/>
	<rect x="38.786" y="39.914" fill="#474A56" width="3.061" height="2.982"/>
</g>
</svg>