<?xml version="1.0" encoding="utf-8"?>
<!-- Generator: Adobe Illustrator 22.0.1, SVG Export Plug-In . SVG Version: 6.00 Build 0)  -->
<svg version="1.1" id="Layer_1" xmlns="http://www.w3.org/2000/svg" xmlns:xlink="http://www.w3.org/1999/xlink" x="0px" y="0px"
	 viewBox="0 0 56.7 56.7" style="enable-background:new 0 0 56.7 56.7;" xml:space="preserve">
<style type="text/css">
	.st0{fill:#474A56;}
</style>
<g>
	<path class="st0" d="M51.8,6.9H5.3c-1,0-1.7,0.8-1.7,1.7v40.2c0,1,0.8,1.7,1.7,1.7h46.5c1,0,1.7-0.8,1.7-1.7V8.6
		C53.5,7.6,52.8,6.9,51.8,6.9z M7,47.1V13.3h43v33.7C50.1,47.1,7,47.1,7,47.1z"/>
	<path class="st0" d="M46,37H10.7c-0.6,0-1,0.5-1,1v3.8c0,0.6,0.5,1,1,1H46c0.6,0,1-0.5,1-1V38C47,37.5,46.5,37,46,37z"/>
	<path class="st0" d="M26,16.9H10.8c-0.6,0-1,0.5-1,1v14c0,0.6,0.5,1,1,1H26c0.6,0,1-0.5,1-1V18C27.1,17.4,26.6,16.9,26,16.9z
		 M25,30.9H11.9V19H25V30.9z"/>
	<path class="st0" d="M46.2,16.9H31c-0.6,0-1,0.5-1,1v14c0,0.6,0.5,1,1,1h15.2c0.6,0,1-0.5,1-1V18C47.2,17.4,46.7,16.9,46.2,16.9z
		 M45.1,30.9H32V19h13.1V30.9z"/>
</g>
</svg>
