<svg xmlns="http://www.w3.org/2000/svg" viewBox="0 0 24 24"><defs><style>.cls-1{fill:#2db674;}.cls-2{fill:#fff;}.cls-3{fill:none;}</style></defs><title>214_vote_like_up_upvote</title><g id="Layer_2" data-name="Layer 2"><g id="Layer_1-2" data-name="Layer 1"><circle class="cls-1" cx="12.0452" cy="11.9925" r="11"/><path class="cls-2" d="M17.4092,12.0994a.8662.8662,0,0,0,.44-.7729.8419.8419,0,0,0-.875-.874H13.5693c.7754-2.0181.3955-3.3608-.2334-3.9512a.838.838,0,0,0-.9082-.2476.7023.7023,0,0,0-.3213.7471c.1729,1.9741-2.26,3.9121-2.2842,3.9316a.1238.1238,0,0,0-.0479.0981v4.5288a.1245.1245,0,0,0,.085.1182,20.0052,20.0052,0,0,0,5.7852.8608c.5657,0,1.0449-.209,1.0449-.751a.8435.8435,0,0,0-.2529-.5874.8822.8822,0,0,0,.6152-1.4727c-.0107-.0112-.0205-.0225-.0312-.0332a.8488.8488,0,0,0,.749-.875A.86.86,0,0,0,17.4092,12.0994Z"/><rect class="cls-2" x="6.25" y="10.2302" width="2.5" height="6.5" rx="0.25" ry="0.25"/><rect class="cls-3" width="24" height="24"/></g></g></svg>