<?xml version="1.0" encoding="utf-8"?>
<!-- Generator: Adobe Illustrator 17.0.0, SVG Export Plug-In . SVG Version: 6.00 Build 0)  -->
<!DOCTYPE svg PUBLIC "-//W3C//DTD SVG 1.1//EN" "http://www.w3.org/Graphics/SVG/1.1/DTD/svg11.dtd">
<svg version="1.1" id="Layer_1" xmlns="http://www.w3.org/2000/svg" xmlns:xlink="http://www.w3.org/1999/xlink" x="0px" y="0px"
	 width="56.693px" height="56.693px" viewBox="0 0 56.693 56.693" enable-background="new 0 0 56.693 56.693" xml:space="preserve">
<g>
	<path fill="#FFFFFF" d="M50.564,24.309c-3.301-3.301-8.65-3.301-11.949,0c-2.4,2.4-3.047,5.881-1.953,8.871l-17.16,17.158
		l1.246,2.941l4.873-0.179l1.107-4.165l4.764-0.93l0.853-6.077l4.699,0.113l4.066-4.067c3.111,1.404,6.896,0.839,9.453-1.718
		C53.862,32.958,53.862,27.608,50.564,24.309z M48.407,29.278c-0.777,0.777-2.037,0.777-2.814,0.001
		c-0.777-0.778-0.777-2.037,0-2.815c0.777-0.777,2.037-0.776,2.814,0.001C49.183,27.241,49.185,28.501,48.407,29.278z"/>
	<path fill="#FFFFFF" d="M44.602,41.725c-0.913,0-1.81-0.105-2.683-0.315l-2.753,2.754c-0.563,0.563-1.327,0.879-2.122,0.879
		c-0.024,0-0.048,0-0.072-0.001l-2.028-0.049l-0.482,3.431c-0.017,0.119-0.047,0.233-0.077,0.348h10.308
		c0.83,0,1.502-0.709,1.502-1.583v-5.561c0-0.009-0.003-0.017-0.003-0.024C45.668,41.675,45.139,41.725,44.602,41.725z"/>
	<path fill="#FFFFFF" d="M30.189,31.001v-1.336c1.414-1.505,2.531-3.603,3.193-6.059c0.879-0.642,1.457-1.721,1.457-2.946
		c0-0.872-0.303-1.659-0.789-2.278v-4.977c0-5.139-2.756-8.656-9.057-8.656c-6.135,0-9.055,3.517-9.055,8.656v4.979
		c-0.484,0.618-0.789,1.406-0.789,2.276c0,1.224,0.578,2.303,1.457,2.944c0.66,2.457,1.777,4.556,3.193,6.061v1.336
		c-0.635,2.117-8.213,6.406-15.041,9.147c-0.578,0.234-0.965,0.822-0.965,1.479v5.561c0,0.874,0.672,1.583,1.502,1.583h11.657
		c0.121-0.197,0.259-0.386,0.427-0.554l14.924-14.923C31.148,32.41,30.372,31.614,30.189,31.001z"/>
</g>
</svg>
