<?xml version="1.0" encoding="utf-8"?>
<!-- Generator: Adobe Illustrator 16.0.4, SVG Export Plug-In . SVG Version: 6.00 Build 0)  -->
<!DOCTYPE svg PUBLIC "-//W3C//DTD SVG 1.1//EN" "http://www.w3.org/Graphics/SVG/1.1/DTD/svg11.dtd">
<svg version="1.1" id="Layer_1" xmlns="http://www.w3.org/2000/svg" xmlns:xlink="http://www.w3.org/1999/xlink" x="0px" y="0px"
	 width="56.693px" height="56.693px" viewBox="0 0 56.693 56.693" enable-background="new 0 0 56.693 56.693" xml:space="preserve">
<g>
	<path fill="#FFFFFF" d="M52.035,4.143H20.975c-0.971,0-1.759,0.786-1.759,1.757v14.241h3.515V7.657h22.546l-9.077,5.147
		c-0.55,0.312-0.891,0.896-0.891,1.528v27.196H22.73v-9.68h-3.515v11.438c0,0.971,0.788,1.756,1.759,1.756h14.334v6.676
		c0,0.625,0.332,1.203,0.873,1.518c0.273,0.16,0.578,0.239,0.884,0.239c0.301,0,0.598-0.075,0.867-0.229l14.615-8.288
		c0.719-0.222,1.244-0.882,1.244-1.672V5.9C53.792,4.929,53.006,4.143,52.035,4.143z"/>
	<path fill="#FFFFFF" d="M24.96,28.46c1.358,0,2.459-1.101,2.459-2.46c0-1.357-1.101-2.459-2.459-2.459h-9.401v-4.585
		c0-0.397-0.224-0.76-0.576-0.94c-0.354-0.179-0.776-0.147-1.097,0.087l-9.701,7.044C3.912,25.347,3.749,25.664,3.749,26
		c0,0.338,0.163,0.656,0.436,0.854l9.699,7.046c0.184,0.133,0.4,0.201,0.619,0.201c0.164,0,0.328-0.037,0.479-0.115
		c0.353-0.18,0.576-0.543,0.576-0.939V28.46H24.96z"/>
</g>
</svg>
