<?xml version="1.0" encoding="utf-8"?>
<!-- Generator: Adobe Illustrator 16.0.4, SVG Export Plug-In . SVG Version: 6.00 Build 0)  -->
<!DOCTYPE svg PUBLIC "-//W3C//DTD SVG 1.1//EN" "http://www.w3.org/Graphics/SVG/1.1/DTD/svg11.dtd">
<svg version="1.1" id="Layer_1" xmlns="http://www.w3.org/2000/svg" xmlns:xlink="http://www.w3.org/1999/xlink" x="0px" y="0px"
	 width="56.693px" height="56.693px" viewBox="0 0 56.693 56.693" enable-background="new 0 0 56.693 56.693" xml:space="preserve">
<path fill="#474A56" d="M36.512,5.438H21.362c-9.373,0-17,8.253-17,18.398c0,9.27,6.224,16.892,14.491,18.196v8.432
	c0,0.829,0.505,1.576,1.274,1.885c0.245,0.099,0.502,0.146,0.757,0.146c0.543,0,1.076-0.217,1.467-0.625l9.229-9.637h4.932
	c9.373,0,17-8.253,17-18.397C53.512,13.692,45.885,5.438,36.512,5.438z M28.061,31.915h-9.414c-0.561,0-1.016-0.453-1.016-1.015
	c0-0.56,0.455-1.016,1.016-1.016h9.414c0.561,0,1.016,0.456,1.016,1.016C29.076,31.462,28.621,31.915,28.061,31.915z M39.229,25.201
	H18.646c-0.561,0-1.016-0.456-1.016-1.016c0-0.56,0.455-1.015,1.016-1.015h20.582c0.56,0,1.016,0.456,1.016,1.015
	C40.244,24.745,39.788,25.201,39.229,25.201z M39.229,17.752H18.646c-0.561,0-1.016-0.455-1.016-1.015
	c0-0.56,0.455-1.014,1.016-1.014h20.582c0.56,0,1.016,0.455,1.016,1.014C40.244,17.297,39.788,17.752,39.229,17.752z"/>
</svg>
