<?xml version="1.0" encoding="utf-8"?>
<!-- Generator: Adobe Illustrator 17.0.0, SVG Export Plug-In . SVG Version: 6.00 Build 0)  -->
<!DOCTYPE svg PUBLIC "-//W3C//DTD SVG 1.1//EN" "http://www.w3.org/Graphics/SVG/1.1/DTD/svg11.dtd">
<svg version="1.1" id="Layer_1" xmlns="http://www.w3.org/2000/svg" xmlns:xlink="http://www.w3.org/1999/xlink" x="0px" y="0px"
	 width="56.693px" height="56.693px" viewBox="0 0 56.693 56.693" enable-background="new 0 0 56.693 56.693" xml:space="preserve">
<g>
	<path fill="#474A56" d="M17.97,17.922h-6.895c-0.575,0-1.041,0.466-1.041,1.042v22.767c0,0.576,0.466,1.042,1.041,1.042h6.895
		c0.576,0,1.042-0.466,1.042-1.042V18.964C19.012,18.388,18.546,17.922,17.97,17.922z"/>
	<path fill="#474A56" d="M46.204,17.922H23.041c-0.575,0-1.041,0.466-1.041,1.042v22.767c0,0.576,0.466,1.042,1.041,1.042h23.164
		c0.575,0,1.04-0.466,1.04-1.042V18.964C47.245,18.388,46.779,17.922,46.204,17.922z M45.163,40.69H24.082V20.005h21.081V40.69z"/>
	<path fill="#474A56" d="M51.845,6.858H5.338c-0.958,0-1.735,0.777-1.735,1.735v40.206c0,0.958,0.777,1.735,1.735,1.735h46.506
		c0.958,0,1.735-0.777,1.735-1.735V8.594C53.58,7.635,52.803,6.858,51.845,6.858z M7.074,47.064V13.323h43.035v33.741H7.074z"/>
</g>
</svg>
