<?xml version="1.0" encoding="utf-8"?>
<!-- Generator: Adobe Illustrator 17.0.0, SVG Export Plug-In . SVG Version: 6.00 Build 0)  -->
<!DOCTYPE svg PUBLIC "-//W3C//DTD SVG 1.1//EN" "http://www.w3.org/Graphics/SVG/1.1/DTD/svg11.dtd">
<svg version="1.1" id="Layer_1" xmlns="http://www.w3.org/2000/svg" xmlns:xlink="http://www.w3.org/1999/xlink" x="0px" y="0px"
	 width="56.693px" height="56.693px" viewBox="0 0 56.693 56.693" enable-background="new 0 0 56.693 56.693" xml:space="preserve">
<g>
	<path fill="#474A56" d="M44.945,4.326H12.046c-0.959,0-1.735,0.775-1.735,1.735v46.463c0,0.959,0.777,1.737,1.735,1.737h32.899
		c0.958,0,1.735-0.778,1.735-1.737V6.061C46.68,5.101,45.903,4.326,44.945,4.326z M43.209,50.791H13.782V30.064h29.427V50.791z
		 M43.209,27.98H13.782V7.796h29.427V27.98z"/>
	<path fill="#474A56" d="M25.363,39.278h6.264c0.576,0,1.042-0.467,1.042-1.042v-3.199c0-0.576-0.466-1.042-1.042-1.042
		c-0.575,0-1.041,0.466-1.041,1.042v2.158h-4.18v-2.158c0-0.576-0.466-1.042-1.042-1.042c-0.575,0-1.041,0.466-1.041,1.042v3.199
		C24.323,38.811,24.789,39.278,25.363,39.278z"/>
	<path fill="#474A56" d="M25.363,17.062h6.264c0.576,0,1.042-0.466,1.042-1.041v-3.199c0-0.576-0.466-1.042-1.042-1.042
		c-0.575,0-1.041,0.466-1.041,1.042v2.158h-4.18v-2.158c0-0.576-0.466-1.042-1.042-1.042c-0.575,0-1.041,0.466-1.041,1.042v3.199
		C24.323,16.596,24.789,17.062,25.363,17.062z"/>
</g>
</svg>
