<?xml version="1.0" encoding="utf-8"?>
<!-- Generator: Adobe Illustrator 17.0.0, SVG Export Plug-In . SVG Version: 6.00 Build 0)  -->
<!DOCTYPE svg PUBLIC "-//W3C//DTD SVG 1.1//EN" "http://www.w3.org/Graphics/SVG/1.1/DTD/svg11.dtd">
<svg version="1.1" id="Layer_1" xmlns="http://www.w3.org/2000/svg" xmlns:xlink="http://www.w3.org/1999/xlink" x="0px" y="0px"
	 width="56.693px" height="56.693px" viewBox="0 0 56.693 56.693" enable-background="new 0 0 56.693 56.693" xml:space="preserve">
<g>
	<path fill="#474A56" d="M52.63,36.434l-7.004-9.643c-0.282-0.389-0.733-0.618-1.214-0.618c-0.48,0-0.931,0.229-1.213,0.618
		l-7.129,9.811c-0.332,0.456-0.379,1.06-0.123,1.564c0.256,0.502,0.773,0.818,1.337,0.818h3.074
		c-2.907,4.344-8.018,6.951-13.446,6.485c-3.399-0.291-6.606-1.763-9.031-4.144c-1.182-1.16-3.082-1.145-4.243,0.039
		c-1.161,1.182-1.144,3.081,0.038,4.242c3.418,3.356,7.936,5.431,12.725,5.841c0.586,0.05,1.169,0.074,1.749,0.074
		c8.268,0,15.764-4.99,19-12.538h4.39c0.007,0,0.013,0,0.02,0c0.829,0,1.5-0.672,1.5-1.5C53.059,37.076,52.896,36.704,52.63,36.434z
		"/>
	<path fill="#474A56" d="M13.13,32.894l7.128-9.812c0.331-0.457,0.379-1.061,0.123-1.562c-0.256-0.503-0.772-0.819-1.336-0.819
		h-3.108c2.891-4.354,7.976-6.944,13.464-6.482c3.421,0.291,6.647,1.78,9.085,4.194c1.177,1.167,3.077,1.158,4.242-0.02
		c1.166-1.178,1.157-3.077-0.02-4.242c-3.435-3.402-7.98-5.502-12.799-5.911C20.876,7.468,12.606,12.593,9.156,20.7H4.789
		c-0.564,0-1.08,0.316-1.336,0.819c-0.256,0.502-0.208,1.105,0.123,1.562l7.127,9.812c0.282,0.389,0.733,0.618,1.214,0.618
		C12.396,33.512,12.847,33.283,13.13,32.894z"/>
</g>
</svg>
