<?xml version="1.0" encoding="utf-8"?>
<!-- Generator: Adobe Illustrator 17.0.0, SVG Export Plug-In . SVG Version: 6.00 Build 0)  -->
<!DOCTYPE svg PUBLIC "-//W3C//DTD SVG 1.1//EN" "http://www.w3.org/Graphics/SVG/1.1/DTD/svg11.dtd">
<svg version="1.1" id="Layer_1" xmlns="http://www.w3.org/2000/svg" xmlns:xlink="http://www.w3.org/1999/xlink" x="0px" y="0px"
	 width="56.693px" height="56.693px" viewBox="0 0 56.693 56.693" enable-background="new 0 0 56.693 56.693" xml:space="preserve">
<g>
	<path fill="#FFFFFF" d="M41.113,28.714c-6.7,0-12.129,5.429-12.129,12.128c0,6.701,5.429,12.131,12.129,12.131
		c6.698,0,12.132-5.43,12.132-12.131C53.245,34.143,47.812,28.714,41.113,28.714z M46.554,42.264H42.53v4.014
		c0,0.785-0.631,1.421-1.417,1.421c-0.784,0-1.419-0.636-1.419-1.421v-4.014h-4.014c-0.787,0-1.418-0.637-1.418-1.42
		c0-0.785,0.631-1.418,1.418-1.418h4.014v-4.019c0-0.783,0.635-1.417,1.419-1.417c0.786,0,1.417,0.634,1.417,1.417v4.019h4.023
		c0.781,0,1.417,0.633,1.417,1.418C47.971,41.627,47.335,42.264,46.554,42.264z"/>
	<path fill="#FFFFFF" d="M31.851,28.344c1.004-1.357,1.807-3.023,2.332-4.902c0.918-0.646,1.522-1.732,1.522-2.965
		c0-0.878-0.317-1.67-0.825-2.293v-5.01c0-5.174-2.879-8.713-9.464-8.713c-6.414,0-9.468,3.539-9.468,8.713v5.01
		c-0.506,0.623-0.823,1.416-0.823,2.293c0,1.232,0.604,2.316,1.522,2.964c0.69,2.473,1.859,4.585,3.339,6.1v1.345
		c-0.663,2.131-8.585,6.447-15.721,9.207c-0.606,0.235-1.01,0.828-1.01,1.489v5.597c0,0.879,0.703,1.593,1.569,1.593h23.134
		c-1.48-2.356-2.351-5.134-2.351-8.115C25.609,35.608,28.073,31.137,31.851,28.344z"/>
</g>
</svg>
