<svg xmlns="http://www.w3.org/2000/svg" viewBox="0 0 24 24"><defs><style>.cls-1{fill:#1b75bc;}.cls-2{fill:#fff;}.cls-3{fill:none;}</style></defs><title>014_comment_reply</title><g id="Layer_2" data-name="Layer 2"><g id="Layer_1-2" data-name="Layer 1"><circle class="cls-1" cx="12.0121" cy="12" r="11"/><path class="cls-2" d="M13.9435,7h-3.863a4.5288,4.5288,0,0,0-4.335,4.6912,4.5661,4.5661,0,0,0,3.6954,4.64v2.15a.5187.5187,0,0,0,.8921.3583l2.353-2.4572h1.2575a4.5288,4.5288,0,0,0,4.335-4.6913A4.5288,4.5288,0,0,0,13.9435,7Zm-2.3844,4.5645a2.756,2.756,0,0,1-.5119,1.8847A1.8164,1.8164,0,0,1,9.6581,14a.0855.0855,0,0,1-.0857-.0856V13.19a.0857.0857,0,0,1,.0857-.0858c.4645,0,.69-.3192.69-.9756v-.2947H9.2489a.0861.0861,0,0,1-.086-.086V9.7314a.0858.0858,0,0,1,.086-.0857h2.2242a.0857.0857,0,0,1,.086.0857Zm3.33,0a2.772,2.772,0,0,1-.5079,1.8847A1.8152,1.8152,0,0,1,12.9874,14a.0856.0856,0,0,1-.0857-.0856V13.19a.0858.0858,0,0,1,.0857-.0858c.4645,0,.69-.3192.69-.9756v-.2947H12.5782a.0859.0859,0,0,1-.0857-.086V9.7314a.0856.0856,0,0,1,.0857-.0857h2.2245a.0857.0857,0,0,1,.086.0857Z"/><rect class="cls-3" width="24" height="24"/></g></g></svg>