<svg xmlns="http://www.w3.org/2000/svg" viewBox="0 0 24 24"><defs><style>.cls-1{fill:#2db674;}.cls-2{fill:#fff;}.cls-3{fill:none;}</style></defs><title>073_view_show</title><g id="Layer_2" data-name="Layer 2"><g id="Layer_1-2" data-name="Layer 1"><circle class="cls-1" cx="12.0306" cy="12.0083" r="11"/><path class="cls-2" d="M18.502,11.26a7.5281,7.5281,0,0,0-6.4658-4.0557A7.5281,7.5281,0,0,0,5.57,11.26a1.4331,1.4331,0,0,0,0,1.41,7.5281,7.5281,0,0,0,6.4658,4.0557A7.5285,7.5285,0,0,0,18.502,12.67,1.4316,1.4316,0,0,0,18.502,11.26Zm-6.4657,4.0341a3.2682,3.2682,0,1,1,3.2682-3.2682A3.2682,3.2682,0,0,1,12.0363,15.2943Z"/><circle class="cls-2" cx="12.0363" cy="12.026" r="1.6478"/><rect class="cls-3" width="24" height="24"/></g></g></svg>