<?xml version="1.0" encoding="utf-8"?>
<!-- Generator: Adobe Illustrator 17.0.0, SVG Export Plug-In . SVG Version: 6.00 Build 0)  -->
<!DOCTYPE svg PUBLIC "-//W3C//DTD SVG 1.1//EN" "http://www.w3.org/Graphics/SVG/1.1/DTD/svg11.dtd">
<svg version="1.1" id="Layer_1" xmlns="http://www.w3.org/2000/svg" xmlns:xlink="http://www.w3.org/1999/xlink" x="0px" y="0px"
	 width="56.693px" height="56.693px" viewBox="0 0 56.693 56.693" enable-background="new 0 0 56.693 56.693" xml:space="preserve">
<g>
	<path fill="#474A56" d="M8.971,15.257h38.955v24.426h3.471v-26.16c0-0.959-0.777-1.736-1.735-1.736H7.236
		c-0.959,0-1.736,0.777-1.736,1.736v26.16h3.472V15.257z"/>
	<path fill="#474A56" d="M31.137,42.614v0.659c0,0.521-0.423,0.942-0.943,0.942h-3.49c-0.52,0-0.943-0.422-0.943-0.942v-0.659H3.5
		v3.161c0,0.959,0.777,1.735,1.735,1.735h46.426c0.959,0,1.736-0.776,1.736-1.735v-3.161H31.137z"/>
	<path fill="#474A56" d="M16.697,26.662c-0.107-0.102-0.251-0.151-0.432-0.151c-0.187,0-0.339,0.05-0.453,0.151
		c-0.113,0.099-0.171,0.212-0.171,0.337v2.631c0,0.326,0.031,0.63,0.093,0.91c0.062,0.281,0.171,0.524,0.323,0.728
		c0.152,0.206,0.357,0.365,0.614,0.479c0.256,0.114,0.575,0.171,0.957,0.171c0.395,0,0.718-0.071,0.972-0.213
		c0.253-0.142,0.456-0.334,0.609-0.577c0.144,0.243,0.343,0.436,0.592,0.577c0.25,0.142,0.579,0.213,0.988,0.213
		c0.381,0,0.698-0.057,0.952-0.171c0.252-0.114,0.456-0.273,0.608-0.479c0.151-0.203,0.26-0.446,0.322-0.728
		c0.062-0.28,0.093-0.584,0.093-0.91v-2.631c0-0.125-0.056-0.238-0.166-0.337c-0.111-0.102-0.264-0.151-0.458-0.151
		c-0.173,0-0.313,0.05-0.421,0.151c-0.108,0.099-0.16,0.212-0.16,0.337v2.673c0,0.381-0.07,0.662-0.208,0.843
		c-0.14,0.182-0.362,0.272-0.667,0.272c-0.312,0-0.534-0.09-0.666-0.272c-0.131-0.181-0.197-0.462-0.197-0.843v-2.684
		c0-0.153-0.065-0.269-0.197-0.354c-0.132-0.082-0.267-0.124-0.405-0.124c-0.062,0-0.13,0.012-0.203,0.036
		c-0.073,0.024-0.141,0.056-0.202,0.094c-0.062,0.038-0.115,0.084-0.156,0.141c-0.042,0.054-0.062,0.114-0.062,0.176v2.715
		c0,0.381-0.066,0.662-0.198,0.843c-0.132,0.182-0.354,0.272-0.665,0.272c-0.312,0-0.537-0.09-0.672-0.272
		c-0.135-0.181-0.202-0.462-0.202-0.843v-2.673C16.858,26.874,16.803,26.76,16.697,26.662z"/>
	<path fill="#474A56" d="M25.08,26.662c-0.108-0.102-0.251-0.151-0.432-0.151c-0.188,0-0.337,0.05-0.452,0.151
		c-0.114,0.099-0.172,0.212-0.172,0.337v2.631c0,0.326,0.031,0.63,0.094,0.91c0.062,0.281,0.169,0.524,0.322,0.728
		c0.152,0.206,0.357,0.365,0.613,0.479c0.257,0.114,0.575,0.171,0.957,0.171c0.396,0,0.72-0.071,0.973-0.213
		c0.253-0.142,0.456-0.334,0.608-0.577c0.146,0.243,0.344,0.436,0.593,0.577c0.249,0.142,0.579,0.213,0.988,0.213
		c0.381,0,0.698-0.057,0.951-0.171c0.253-0.114,0.456-0.273,0.609-0.479c0.152-0.203,0.261-0.446,0.322-0.728
		c0.062-0.28,0.094-0.584,0.094-0.91v-2.631c0-0.125-0.057-0.238-0.168-0.337c-0.11-0.102-0.263-0.151-0.457-0.151
		c-0.173,0-0.315,0.05-0.422,0.151c-0.107,0.099-0.16,0.212-0.16,0.337v2.673c0,0.381-0.069,0.662-0.208,0.843
		c-0.139,0.182-0.361,0.272-0.666,0.272c-0.311,0-0.533-0.09-0.666-0.272c-0.131-0.181-0.197-0.462-0.197-0.843v-2.684
		c0-0.153-0.065-0.269-0.197-0.354c-0.131-0.082-0.267-0.124-0.406-0.124c-0.063,0-0.129,0.012-0.202,0.036
		c-0.073,0.024-0.141,0.056-0.202,0.094c-0.062,0.038-0.115,0.084-0.156,0.141c-0.043,0.054-0.063,0.114-0.063,0.176v2.715
		c0,0.381-0.066,0.662-0.197,0.843c-0.132,0.182-0.354,0.272-0.665,0.272c-0.312,0-0.536-0.09-0.672-0.272
		c-0.134-0.181-0.202-0.462-0.202-0.843v-2.673C25.241,26.874,25.187,26.76,25.08,26.662z"/>
	<path fill="#474A56" d="M33.462,26.662c-0.107-0.102-0.251-0.151-0.431-0.151c-0.188,0-0.339,0.05-0.453,0.151
		c-0.114,0.099-0.172,0.212-0.172,0.337v2.631c0,0.326,0.031,0.63,0.094,0.91c0.061,0.281,0.169,0.524,0.322,0.728
		c0.152,0.206,0.356,0.365,0.614,0.479c0.257,0.114,0.575,0.171,0.957,0.171c0.394,0,0.719-0.071,0.972-0.213
		c0.253-0.142,0.456-0.334,0.608-0.577c0.146,0.243,0.344,0.436,0.594,0.577c0.249,0.142,0.578,0.213,0.987,0.213
		c0.381,0,0.698-0.057,0.952-0.171c0.253-0.114,0.456-0.273,0.608-0.479c0.152-0.203,0.26-0.446,0.321-0.728
		c0.064-0.28,0.095-0.584,0.095-0.91v-2.631c0-0.125-0.056-0.238-0.168-0.337c-0.11-0.102-0.263-0.151-0.456-0.151
		c-0.173,0-0.314,0.05-0.422,0.151c-0.107,0.099-0.161,0.212-0.161,0.337v2.673c0,0.381-0.069,0.662-0.208,0.843
		c-0.139,0.182-0.361,0.272-0.665,0.272c-0.312,0-0.534-0.09-0.666-0.272c-0.131-0.181-0.197-0.462-0.197-0.843v-2.684
		c0-0.153-0.066-0.269-0.198-0.354c-0.131-0.082-0.268-0.124-0.404-0.124c-0.062,0-0.131,0.012-0.205,0.036
		c-0.072,0.024-0.139,0.056-0.201,0.094c-0.062,0.038-0.114,0.084-0.155,0.141c-0.042,0.054-0.063,0.114-0.063,0.176v2.715
		c0,0.381-0.066,0.662-0.198,0.843c-0.131,0.182-0.353,0.272-0.664,0.272c-0.312,0-0.536-0.09-0.672-0.272
		c-0.135-0.181-0.203-0.462-0.203-0.843v-2.673C33.624,26.874,33.571,26.76,33.462,26.662z"/>
	<path fill="#474A56" d="M40.785,30.794c-0.121,0.104-0.182,0.223-0.182,0.354v0.261c0,0.131,0.06,0.25,0.182,0.354
		c0.121,0.104,0.286,0.155,0.493,0.155c0.188,0,0.343-0.051,0.464-0.155c0.12-0.104,0.182-0.223,0.182-0.354v-0.261
		c0-0.131-0.062-0.249-0.182-0.354c-0.121-0.104-0.276-0.155-0.464-0.155C41.071,30.639,40.906,30.69,40.785,30.794z"/>
</g>
</svg>
