<?xml version="1.0" encoding="utf-8"?>
<!-- Generator: Adobe Illustrator 17.0.0, SVG Export Plug-In . SVG Version: 6.00 Build 0)  -->
<!DOCTYPE svg PUBLIC "-//W3C//DTD SVG 1.1//EN" "http://www.w3.org/Graphics/SVG/1.1/DTD/svg11.dtd">
<svg version="1.1" id="Layer_1" xmlns="http://www.w3.org/2000/svg" xmlns:xlink="http://www.w3.org/1999/xlink" x="0px" y="0px"
	 width="56.693px" height="56.693px" viewBox="0 0 56.693 56.693" enable-background="new 0 0 56.693 56.693" xml:space="preserve">
<g>
	<path fill="#474A56" d="M49.546,24.99H7.893c-2.289,0-4.151,1.861-4.151,4.15v1.389c0,1.826,1.168,3.365,2.841,3.908l4.154,14.516
		c0.023,0.082,0.055,0.16,0.094,0.234c1.63,3.269,3.481,3.541,5.39,3.541h24.993c1.91,0,3.761-0.272,5.395-3.539
		c0.038-0.076,0.068-0.154,0.092-0.234l4.155-14.517c1.673-0.543,2.841-2.082,2.841-3.908V29.14
		C53.695,26.851,51.834,24.99,49.546,24.99z M40.727,46.875H16.41c-0.647,0-1.174-0.526-1.174-1.172
		c0-0.648,0.526-1.175,1.174-1.175h24.317c0.647,0,1.173,0.527,1.173,1.175C41.9,46.349,41.374,46.875,40.727,46.875z
		 M42.345,40.536H15.241c-0.648,0-1.174-0.527-1.174-1.174c0-0.646,0.526-1.173,1.174-1.173h27.104c0.648,0,1.175,0.526,1.175,1.173
		C43.52,40.009,42.993,40.536,42.345,40.536z M43.545,34.196H14.342c-0.648,0-1.174-0.527-1.174-1.174
		c0-0.646,0.527-1.173,1.174-1.173h29.203c0.648,0,1.175,0.526,1.175,1.173C44.719,33.669,44.192,34.196,43.545,34.196z"/>
	<path fill="#474A56" d="M17.534,21.82l10.224-10.481c0.303,0.107,0.623,0.176,0.961,0.176c0.361,0,0.702-0.074,1.021-0.193
		l10.156,10.494c0.29,0.299,0.676,0.447,1.06,0.447c0.369,0,0.74-0.139,1.027-0.414c0.586-0.566,0.6-1.502,0.033-2.086L31.588,8.988
		c0.018-0.125,0.039-0.252,0.039-0.381c0-1.607-1.302-2.91-2.908-2.91c-1.607,0-2.91,1.303-2.91,2.91
		c0,0.156,0.021,0.307,0.045,0.457L15.422,19.757c-0.568,0.584-0.558,1.517,0.025,2.088C16.031,22.416,16.965,22.404,17.534,21.82z"
		/>
</g>
</svg>
