<?xml version="1.0" encoding="utf-8"?>
<!-- Generator: Adobe Illustrator 18.1.0, SVG Export Plug-In . SVG Version: 6.00 Build 0)  -->
<!DOCTYPE svg PUBLIC "-//W3C//DTD SVG 1.1//EN" "http://www.w3.org/Graphics/SVG/1.1/DTD/svg11.dtd">
<svg version="1.1" id="Layer_1" xmlns="http://www.w3.org/2000/svg" xmlns:xlink="http://www.w3.org/1999/xlink" x="0px" y="0px"
	 viewBox="-7058 2806.6 56.7 56.7" enable-background="new -7058 2806.6 56.7 56.7" xml:space="preserve">
<path fill="#FFFFFF" d="M-7007.7,2833.4l-4.4-1.1c-0.1-0.6-0.3-1.2-0.5-1.8l3.2-3.2c1-1.1,1.7-2.3,1-3.6c-0.7-1.2-2.2-1.3-3.6-1
	l-4.3,1.2c-0.4-0.5-0.9-0.9-1.3-1.3l1.2-4.3c0.3-1.5,0.3-2.8-1-3.6c-1.2-0.7-2.5,0-3.6,1l-3.2,3.2c-0.6-0.2-1.2-0.3-1.8-0.5
	l-1.1-4.4c-0.4-1.4-1.2-2.6-2.6-2.6c-1.4,0-2.2,1.2-2.6,2.6l-1.1,4.4c-0.6,0.1-1.2,0.3-1.8,0.5l-3.2-3.2c-1.1-1-2.3-1.7-3.6-1
	c-1.2,0.7-1.3,2.2-1,3.6l1.2,4.3c-0.5,0.4-0.9,0.9-1.3,1.3l-4.3-1.2c-1.5-0.3-2.8-0.3-3.6,1c-0.7,1.2,0,2.6,1,3.6l3.2,3.2
	c-0.2,0.6-0.4,1.2-0.5,1.8l-4.4,1.1c-1.4,0.4-2.6,1.2-2.6,2.6c0,1.4,1.2,2.2,2.6,2.6l4.4,1.1c0.1,0.6,0.3,1.2,0.5,1.8l-3.2,3.2
	c-1,1.1-1.7,2.3-1,3.6c0.7,1.2,2.2,1.3,3.6,1l4.3-1.2c0.4,0.5,0.9,0.9,1.3,1.3l-1.2,4.3c-0.3,1.5-0.3,2.8,1,3.6c1.2,0.7,2.6,0,3.6-1
	l3.2-3.2c0.6,0.2,1.2,0.4,1.8,0.5l1.1,4.4c0.4,1.4,1.2,2.6,2.6,2.6c1.4,0,2.2-1.2,2.6-2.6l1.1-4.4c0.6-0.1,1.2-0.3,1.8-0.5l3.2,3.2
	c1.1,1,2.3,1.7,3.6,1c1.2-0.7,1.3-2.2,1-3.6l-1.2-4.3c0.5-0.4,0.9-0.9,1.3-1.3l4.3,1.2c1.5,0.3,2.8,0.3,3.6-1c0.7-1.2,0-2.5-1-3.6
	l-3.2-3.2c0.2-0.6,0.4-1.2,0.5-1.8l4.4-1.1c1.4-0.4,2.6-1.2,2.6-2.6C-7005,2834.6-7006.3,2833.8-7007.7,2833.4z M-7029.7,2843.5
	c-4.1,0-7.5-3.3-7.5-7.5c0-4.1,3.3-7.5,7.5-7.5c4.1,0,7.5,3.3,7.5,7.5C-7022.2,2840.1-7025.5,2843.5-7029.7,2843.5z"/>
</svg>
