<?xml version="1.0" encoding="utf-8"?>
<!-- Generator: Adobe Illustrator 16.0.4, SVG Export Plug-In . SVG Version: 6.00 Build 0)  -->
<!DOCTYPE svg PUBLIC "-//W3C//DTD SVG 1.1//EN" "http://www.w3.org/Graphics/SVG/1.1/DTD/svg11.dtd">
<svg version="1.1" id="Layer_1" xmlns="http://www.w3.org/2000/svg" xmlns:xlink="http://www.w3.org/1999/xlink" x="0px" y="0px"
	 width="56.693px" height="56.693px" viewBox="0 0 56.693 56.693" enable-background="new 0 0 56.693 56.693" xml:space="preserve">
<path fill="#474A56" d="M51.753,14.331h-33.06c-0.457,0-0.893,0.181-1.213,0.502L4.028,28.284c-0.321,0.322-0.502,0.758-0.502,1.213
	c0,0.455,0.181,0.891,0.502,1.215L17.48,44.161c0.32,0.322,0.758,0.502,1.213,0.502h33.06c0.948,0,1.717-0.768,1.717-1.717v-26.9
	C53.47,15.099,52.701,14.331,51.753,14.331z M16.912,33.819c-2.387,0-4.322-1.934-4.322-4.322c0-2.387,1.936-4.323,4.322-4.323
	s4.321,1.936,4.321,4.323C21.233,31.886,19.299,33.819,16.912,33.819z"/>
</svg>
