<?xml version="1.0" encoding="utf-8"?>
<!-- Generator: Adobe Illustrator 18.1.0, SVG Export Plug-In . SVG Version: 6.00 Build 0)  -->
<!DOCTYPE svg PUBLIC "-//W3C//DTD SVG 1.1//EN" "http://www.w3.org/Graphics/SVG/1.1/DTD/svg11.dtd">
<svg version="1.1" id="Layer_1" xmlns="http://www.w3.org/2000/svg" xmlns:xlink="http://www.w3.org/1999/xlink" x="0px" y="0px"
	 viewBox="-7058 2806.6 56.7 56.7" enable-background="new -7058 2806.6 56.7 56.7" xml:space="preserve">
<path fill="#474A56" d="M-7006.2,2833.6c0-12.7-10.3-23.1-23-23.1c-12.7,0-23,10.4-23,23.1c0,4,1,7.9,3,11.4v2.6
	c0,1.1,0.9,2.1,2.1,2.1h4.9c1.1,0,2.1-0.9,2.1-2.1v-13.6c0-1.1-0.9-2.1-2.1-2.1h-4.9c-0.3,0-0.6,0.1-0.9,0.2
	c0.8-9.8,8.9-17.5,18.8-17.5c9.9,0,18,7.7,18.8,17.5c-0.3-0.1-0.6-0.2-0.9-0.2h-4.9c-1.1,0-2.1,0.9-2.1,2.1v13.6
	c0,1.1,0.9,2.1,2.1,2.1h1.8c-2.4,3.1-6.2,5.4-10.7,6.3c-0.4-0.6-1.1-1-1.9-1h-3.9c-1.3,0-2.4,1.1-2.4,2.4c0,1.3,1.1,2.4,2.4,2.4h3.9
	c1.1,0,2-0.8,2.3-1.8c5.6-1.1,10.2-4.2,12.8-8.3h0.6c1.1,0,2.1-0.9,2.1-2.1v-2.5C-7007.3,2841.5-7006.2,2837.6-7006.2,2833.6z"/>
</svg>
