<?xml version="1.0" encoding="utf-8"?>
<!-- Generator: Adobe Illustrator 18.1.0, SVG Export Plug-In . SVG Version: 6.00 Build 0)  -->
<!DOCTYPE svg PUBLIC "-//W3C//DTD SVG 1.1//EN" "http://www.w3.org/Graphics/SVG/1.1/DTD/svg11.dtd">
<svg version="1.1" id="Layer_1" xmlns="http://www.w3.org/2000/svg" xmlns:xlink="http://www.w3.org/1999/xlink" x="0px" y="0px"
	 viewBox="-7058 2806.6 56.7 56.7" enable-background="new -7058 2806.6 56.7 56.7" xml:space="preserve">
<g>
	<path fill="#474A56" d="M-7004.7,2834.9l-11.1-14.6c-0.3-0.4-0.8-0.6-1.3-0.6h-7.9v3.2h7.1l10.3,13.5v19.8h-43.5v-19.8l10.3-13.5
		h7.4v-3.2h-8.2c-0.5,0-1,0.2-1.3,0.6l-11.1,14.6c-0.2,0.3-0.3,0.6-0.3,1v21.9c0,0.9,0.7,1.6,1.6,1.6h46.7c0.9,0,1.6-0.7,1.6-1.6
		v-21.9C-7004.4,2835.5-7004.5,2835.2-7004.7,2834.9z"/>
	<path fill="#474A56" d="M-7022.7,2837.1v5.1h-13.4v-5.1c0-0.5-0.4-1-1-1h-8.2l6.5-8.7h0.2c-0.2-0.6-0.1-1.3,0.2-1.9h-0.9
		c-0.3,0-0.6,0.1-0.8,0.4l-7.9,10.7c-0.2,0.3-0.3,0.7-0.1,1c0.2,0.3,0.5,0.5,0.9,0.5h9.2v5.1c0,0.5,0.4,1,1,1h15.3c0.5,0,1-0.4,1-1
		v-5.1h9.2c0.4,0,0.7-0.2,0.9-0.5c0.2-0.3,0.1-0.7-0.1-1l-7.9-10.7c-0.2-0.2-0.5-0.4-0.8-0.4h-0.6c0.3,0.6,0.3,1.3,0.2,2l6.4,8.7
		h-8.2C-7022.3,2836.1-7022.7,2836.6-7022.7,2837.1z"/>
	<path fill="#474A56" d="M-7036.6,2826.2c-0.2,0.3-0.1,0.7,0.1,1l0.1,0.2l6.4,8.8c0.2,0.3,0.5,0.4,0.8,0.4s0.6-0.1,0.8-0.4l6.4-8.8
		l0.1-0.2c0.2-0.3,0.2-0.7,0.1-1c-0.2-0.3-0.5-0.5-0.9-0.5h-4.2v-0.2v-2.6v-3.2v-5.8c0-1.3-1-2.3-2.3-2.3s-2.3,1-2.3,2.3v5.8v3.2
		v2.6v0.2h-4.2C-7036.1,2825.7-7036.4,2825.9-7036.6,2826.2z"/>
</g>
</svg>
