<?xml version="1.0" encoding="utf-8"?>
<!-- Generator: Adobe Illustrator 16.0.4, SVG Export Plug-In . SVG Version: 6.00 Build 0)  -->
<!DOCTYPE svg PUBLIC "-//W3C//DTD SVG 1.1//EN" "http://www.w3.org/Graphics/SVG/1.1/DTD/svg11.dtd">
<svg version="1.1" id="Layer_1" xmlns="http://www.w3.org/2000/svg" xmlns:xlink="http://www.w3.org/1999/xlink" x="0px" y="0px"
	 width="56.693px" height="56.693px" viewBox="0 0 56.693 56.693" enable-background="new 0 0 56.693 56.693" xml:space="preserve">
<g>
	<path fill="#474A56" d="M19.217,43.784c0.951-0.35,2.484-3.951,2.484-3.951c-0.15-0.08-0.317-0.123-0.486-0.123h-0.391
		c-0.079,0-0.16,0.01-0.236,0.027c-6.08,1.439-11.732,4.568-16.347,9.051c-0.2,0.193-0.312,0.461-0.312,0.738v3.678
		c0,0.57,0.461,1.029,1.03,1.029h23.475C26.646,45.046,19.217,43.784,19.217,43.784z"/>
	<path fill="#474A56" d="M52.625,48.788c-4.513-4.381-10.021-7.473-15.944-8.951c-0.15-0.08-0.319-0.125-0.493-0.125H35.65
		c-0.169,0-0.337,0.041-0.485,0.121h0.001c0,0,1.532,3.602,2.482,3.951c0,0-7.428,1.262-9.215,10.449h23.474
		c0.569,0,1.029-0.459,1.029-1.029v-3.678C52.937,49.249,52.824,48.981,52.625,48.788z"/>
	<path fill="#474A56" d="M19.217,13.241c-1.156,1.854-1.834,4.072-1.834,6.459c0,1.326,0.212,2.6,0.594,3.787
		c-0.662,0.312-1.123,1.016-1.123,1.834c0,1.107,0.848,2.006,1.895,2.006c0.012,0,0.021,0,0.033,0
		c0.219,2.948,1.61,5.893,3.68,7.928v1.529c0,0.107,0.024,0.215,0.074,0.312c0.273,0.535,2.758,5.236,5.885,5.301
		c0.004,0,0.056,0,0.061,0l0,0c3.121,0,5.582-4.764,5.852-5.307c0.048-0.096,0.072-0.199,0.072-0.307v-1.529
		c2.07-2.035,3.462-4.979,3.682-7.928c0.01,0,0.021,0,0.033,0c1.045,0,1.893-0.898,1.893-2.006c0-0.818-0.461-1.521-1.122-1.834
		c0.383-1.188,0.595-2.461,0.595-3.787c0-1.209-0.174-2.374-0.494-3.473c0.42,0.854,0.695,1.645,0.939,2.173
		c0.154,0.329,0.732,0,0.732,0c1.121-4.866-2.957-7.896-2.957-7.896c3.054,0.182,4.128,1.578,4.128,1.578
		C39.23,7.589,35.781,8.782,35.76,8.79c-4.714-6.743-15.188-2.143-15.188-2.143c2.864-0.543,4.974-0.439,6.956-0.229
		c-9.651-0.473-11.789,9.439-11.789,9.439C16.107,14.688,17.479,13.848,19.217,13.241z"/>
</g>
</svg>
