<?xml version="1.0" encoding="utf-8"?>
<!-- Generator: Adobe Illustrator 17.0.0, SVG Export Plug-In . SVG Version: 6.00 Build 0)  -->
<!DOCTYPE svg PUBLIC "-//W3C//DTD SVG 1.1//EN" "http://www.w3.org/Graphics/SVG/1.1/DTD/svg11.dtd">
<svg version="1.1" id="Layer_1" xmlns="http://www.w3.org/2000/svg" xmlns:xlink="http://www.w3.org/1999/xlink" x="0px" y="0px"
	 width="56.693px" height="56.693px" viewBox="0 0 56.693 56.693" enable-background="new 0 0 56.693 56.693" xml:space="preserve">
<g>
	<path fill="#474A56" d="M51.81,6.858H5.305c-0.959,0-1.735,0.777-1.735,1.735v40.206c0,0.958,0.776,1.735,1.735,1.735H51.81
		c0.959,0,1.735-0.777,1.735-1.735V8.594C53.546,7.635,52.769,6.858,51.81,6.858z M7.04,47.064V13.323h43.035v33.741H7.04z"/>
	<path fill="#474A56" d="M46.174,17.921H10.941c-0.575,0-1.041,0.466-1.041,1.042v3.826c0,0.575,0.466,1.041,1.041,1.041h35.233
		c0.575,0,1.041-0.466,1.041-1.041v-3.826C47.214,18.388,46.749,17.921,46.174,17.921z"/>
	<path fill="#474A56" d="M26.042,26.687H10.836c-0.576,0-1.042,0.466-1.042,1.041v14.003c0,0.576,0.466,1.042,1.042,1.042h15.206
		c0.576,0,1.042-0.466,1.042-1.042V27.728C27.083,27.153,26.617,26.687,26.042,26.687z M25.001,40.69H11.877V28.769h13.124V40.69z"
		/>
	<path fill="#474A56" d="M46.174,26.687H30.967c-0.575,0-1.042,0.466-1.042,1.041v14.003c0,0.576,0.467,1.042,1.042,1.042h15.206
		c0.575,0,1.041-0.466,1.041-1.042V27.728C47.214,27.153,46.749,26.687,46.174,26.687z M45.132,40.69H32.008V28.769h13.124V40.69z"
		/>
</g>
</svg>
