<?xml version="1.0" encoding="utf-8"?>
<!-- Generator: Adobe Illustrator 18.1.0, SVG Export Plug-In . SVG Version: 6.00 Build 0)  -->
<!DOCTYPE svg PUBLIC "-//W3C//DTD SVG 1.1//EN" "http://www.w3.org/Graphics/SVG/1.1/DTD/svg11.dtd">
<svg version="1.1" id="Layer_1" xmlns="http://www.w3.org/2000/svg" xmlns:xlink="http://www.w3.org/1999/xlink" x="0px" y="0px"
	 viewBox="-7058 2806.6 56.7 56.7" enable-background="new -7058 2806.6 56.7 56.7" xml:space="preserve">
<g>
	<path fill="#474A56" d="M-7021.4,2842.9h-20.2c-0.4,0-0.7,0.3-0.7,0.7s0.3,0.7,0.7,0.7h20.2c0.4,0,0.7-0.3,0.7-0.7
		S-7021,2842.9-7021.4,2842.9z"/>
	<path fill="#474A56" d="M-7021.4,2836.1h-20.2c-0.4,0-0.7,0.3-0.7,0.7s0.3,0.7,0.7,0.7h20.2c0.4,0,0.7-0.3,0.7-0.7
		S-7021,2836.1-7021.4,2836.1z"/>
	<path fill="#474A56" d="M-7021.4,2829.2h-20.2c-0.4,0-0.7,0.3-0.7,0.7s0.3,0.7,0.7,0.7h20.2c0.4,0,0.7-0.3,0.7-0.7
		S-7021,2829.2-7021.4,2829.2z"/>
	<path fill="#474A56" d="M-7007.1,2817.6c0-3.4-2.8-6.2-6.3-6.2h-31c0,0,0,0,0,0c0,0,0,0,0,0c-3.4,0-6.2,2.8-6.2,6.2v36
		c0,0.5,0.2,0.9,0.5,1.2l5,4.8c0.6,0.6,1.7,0.6,2.3,0l5.1-4.9l5.3,5.1c0.6,0.6,1.7,0.6,2.3,0l5.3-5.1l5.3,5.1
		c0.3,0.3,0.7,0.5,1.2,0.5c0.4,0,0.8-0.2,1.2-0.5l4.8-4.6c0.3-0.3,0.5-0.7,0.5-1.2v-30.4C-7009,2822.9-7007.1,2820.5-7007.1,2817.6z
		 M-7018.2,2856.3l-5.3-5.1c-0.6-0.6-1.7-0.6-2.3,0l-5.3,5.1l-5.3-5.1c-0.6-0.6-1.7-0.6-2.3,0l-5.1,4.9l-3.4-3.2v-35.3
		c0-1.6,1.3-2.8,2.8-2.8c0,0,0,0,0,0c0,0,0,0,0,0h0c1.6,0,3,1.3,3,2.8c0,1.6-1.3,2.8-3,2.8c-0.9,0-1.7,0.7-1.7,1.7
		c0,0.9,0.7,1.7,1.7,1.7h29.3v29.5L-7018.2,2856.3z M-7013.4,2820.5h-25.4c0.5-0.8,0.7-1.8,0.7-2.8c0-1-0.3-2-0.7-2.8h25.4
		c1.6,0,3,1.3,3,2.8C-7010.4,2819.2-7011.7,2820.5-7013.4,2820.5z"/>
</g>
</svg>
