<?xml version="1.0" encoding="iso-8859-1"?>
<!-- Generator: Adobe Illustrator 19.0.0, SVG Export Plug-In . SVG Version: 6.00 Build 0)  -->
<svg version="1.1" id="Layer_1" xmlns="http://www.w3.org/2000/svg" xmlns:xlink="http://www.w3.org/1999/xlink" x="0px" y="0px"
	 viewBox="0 0 578 238" style="enable-background:new 0 0 578 238;" xml:space="preserve">
<g id="XMLID_1_">
	<path id="XMLID_6_" style="fill:#8DC63F;" d="M21.333,87.201v63.598h63.598V87.201H21.333z M59.737,99.324
		c1.987,0.882,3.31,1.994,3.969,3.335c0.646,1.317,0.969,3.584,0.969,6.801v0.671l-4.341-4.844l-2.963-3.875l-3.82-3.391
		C55.911,98.12,57.973,98.554,59.737,99.324z M46.024,138.433c-2.062-1.056-3.41-2.41-4.043-4.062
		c-0.41-0.994-0.689-2.341-0.838-4.043l1.491,1.025l3.764,3.764l5.198,4.043l0.857,0.82C49.943,139.856,47.8,139.34,46.024,138.433z
		 M64.526,135.21c-0.696,1.379-2.043,2.522-4.043,3.428c-0.845,0.397-1.689,0.689-2.534,0.876l-4.043-3.82l-4.043-3.186
		l-2.888-2.888l-5.962-3.447v-1.435h10.117v4.9c0,1.503,0.143,2.472,0.429,2.907c0.298,0.435,0.807,0.652,1.528,0.652
		c0.733,0,1.273-0.273,1.621-0.82c0.348-0.559,0.522-1.373,0.522-2.441c0-2.372-0.335-3.925-1.006-4.658
		c-0.708-0.733-2.41-1.95-5.105-3.652c-2.807-1.814-4.602-3.074-5.385-3.782c-0.882-0.758-1.609-1.832-2.18-3.223
		c-0.584-1.342-0.876-3.105-0.876-5.292c0-3.093,0.41-5.347,1.23-6.763c0.82-1.428,2.143-2.546,3.969-3.354
		c1.205-0.522,2.608-0.882,4.211-1.081l2.199,1.528l2.795,4.565c2.683,2.223,4.379,3.683,5.087,4.379
		c0.658,0.671,1.056,1.233,1.192,1.686c0.137,0.453,0.205,0.711,0.205,0.773h-7.006v-3c0-1.379-0.13-2.267-0.391-2.664
		c-0.261-0.385-0.696-0.578-1.304-0.578c-0.646,0-1.137,0.261-1.472,0.783c-0.335,0.509-0.503,1.286-0.503,2.329
		c0,1.354,0.186,2.372,0.559,3.056c0.348,0.671,1.379,1.491,3.093,2.459c4.82,2.77,7.869,5.043,9.148,6.819
		c1.267,1.776,1.9,4.639,1.9,8.589C65.588,131.738,65.234,133.856,64.526,135.21z"/>
	<path id="XMLID_11_" style="fill:#8DC63F;" d="M88.747,87.201v63.598h63.598V87.201H88.747z M133.076,139.16h-10.881v-16.937
		h-3.261v16.937h-10.918V98.84h10.918v14.421h3.261V98.84h2.72l1.137,4.9c0.161,0.956,0.323,1.64,0.484,2.05s0.279,1.13,0.354,2.161
		l0.876,1.863c0.012,1.242,0.05,2.245,0.112,3.009c0.062,0.764,0.158,1.484,0.289,2.161c0.13,0.677,0.32,1.078,0.568,1.202
		c0.472,0.261,0.677,0.745,0.615,1.453l-0.149,2.366l-1.509,3.596c0.273,0.534,0.553,0.981,0.838,1.342
		c0.273,0.373-0.168,1.509-1.323,3.41c-0.273,1.031-0.255,1.546,0.056,1.546c0.298,0,1.553-0.075,3.764-0.224l1.472,0.522
		c0.211,0.373,0.404,0.708,0.578,1.006V139.16z M133.076,124.441c-0.149-0.522-0.348-0.96-0.596-1.314s-0.46-0.711-0.633-1.071
		c-0.335-0.658-0.292-1.447,0.13-2.366c0.236-0.509,0.534-0.851,0.894-1.025l0.205,0.894V124.441z M133.076,116.764
		c-0.348-0.596-0.82-1.373-1.416-2.329c-0.596-0.956-0.938-1.64-1.025-2.05c-0.273-1.143-0.267-2.105,0.019-2.888
		c0.112-0.298,0.124-1.301,0.037-3.009c-0.087-1.708-0.298-2.798-0.633-3.27c-0.348-0.46-0.652-0.783-0.913-0.969
		c-0.261-0.186-0.447-0.41-0.559-0.671c-0.112-0.261-0.298-0.776-0.559-1.546c0.149-0.273,0.155-0.671,0.019-1.192h5.031V116.764z"
		/>
	<path id="XMLID_16_" style="fill:#8DC63F;" d="M156.16,87.201v63.598h63.598V87.201H156.16z M198.309,102.222
		c1.081,1.404,1.727,2.944,1.938,4.621c0.037,0.335,0.068,0.627,0.093,0.876c-0.323-0.422-0.565-0.745-0.727-0.969l-1.491-2.031
		l-1.211-2.236l-1.379-2.031l-0.82-1.081C196.167,100.067,197.365,101.017,198.309,102.222z M200.564,122.456
		c0,4.099-0.099,6.968-0.298,8.608c-0.211,1.702-0.832,3.242-1.863,4.621c-1.043,1.391-2.453,2.459-4.23,3.205
		c-1.751,0.745-3.826,1.118-6.223,1.118c-2.236,0-4.248-0.354-6.037-1.062c-1.789-0.683-3.223-1.739-4.304-3.167
		c-1.081-1.354-1.733-2.888-1.956-4.602c-0.199-1.602-0.298-4.509-0.298-8.72v-3.726l0.745,0.559
		c1.751,1.18,2.981,2.118,3.689,2.813c0.348,0.36,0.845,0.953,1.491,1.779c0.646,0.826,1.286,1.668,1.919,2.525
		c0.633,0.857,1.422,1.938,2.366,3.242l0.727,0.596c0.025,1.043,0.112,1.751,0.261,2.124c0.174,0.547,0.633,0.82,1.379,0.82
		c0.311,0,0.559-0.05,0.745-0.149l0.913,1.509l4.025,3.167l-2.459-3.335l4.043,2.273l-1.584-2.441l-3.503-4.211l-0.466-0.503
		c0.012-0.348,0.019-0.938,0.019-1.77v-7.732l0.54,0.447l4.23,2.776l-0.671-1.118l-1.211-2.441l-0.783-0.671l-1.9-1.9l-0.205-0.335
		v-7.546c0-1.851-0.106-3.056-0.317-3.615c-0.236-0.522-0.683-0.783-1.342-0.783c-0.571,0-1.006,0.217-1.304,0.652
		c-0.311,0.41-0.466,1.658-0.466,3.745v2.683l-0.484-0.596l-1.211-1.658l-2.012-0.783l0.559,2.553l1.118,1.565l1.546,1.9
		l0.484,0.484v10.583l-8.03-8.925l-2.851-2.758c0.012-3.428,0.112-5.863,0.298-7.304c0.174-1.689,0.795-3.23,1.863-4.621
		c1.043-1.404,2.453-2.478,4.229-3.223c1.764-0.745,3.832-1.118,6.204-1.118c0.348,0,0.609,0.006,0.783,0.019l2.627,2.72
		c1.491,1.714,2.422,2.919,2.795,3.615c0.36,0.708,1.006,1.447,1.938,2.217c1.019,0.932,1.882,1.77,2.59,2.515
		c0.397,0.447,1.012,1.323,1.845,2.627c0,0.571,0.006,1.18,0.019,1.826c0.012,0.646,0.019,1.323,0.019,2.031V122.456z"/>
	<path id="XMLID_20_" style="fill:#8DC63F;" d="M223.574,87.201v63.598h63.598V87.201H223.574z M260.972,98.84
		c0.149,1.279,0.516,5.366,1.099,12.26c-0.671-2.161-1.32-4.282-1.947-6.363c-0.627-2.081-1.214-4.046-1.761-5.897H260.972z
		 M252.224,138.815c-0.019,0.118-0.034,0.233-0.047,0.345H238.65l-2.813-23.253c0.484,0.894,0.876,1.404,1.174,1.528
		c0.559,0.261,0.938,0.745,1.137,1.453l0.708,2.366l-0.205,3.596c0.484,0.534,0.932,0.981,1.342,1.342
		c0.41,0.373,0.379,1.509-0.093,3.41c0.099,1.019,0.304,1.528,0.615,1.528c0.298,0,1.528-0.068,3.689-0.205l1.658,0.522
		c2.397,2.534,3.801,4.08,4.211,4.639c0.236,0.335,0.571,0.73,1.006,1.183s0.838,0.848,1.211,1.183
		C252.264,138.576,252.243,138.697,252.224,138.815z M258.512,139.16c-0.795-3.851-1.528-8.142-2.199-12.875
		c0.149,0.174,0.335,0.342,0.559,0.503c0.683,0.596,2.261,1.795,4.733,3.596l-1.379-1.696c-0.994-2.161-1.652-3.354-1.975-3.577
		c-0.335-0.211-1.037-1.379-2.105-3.503c-0.261-0.41-0.472-0.776-0.633-1.099c-0.05-0.41-0.102-0.82-0.158-1.23
		c-0.056-0.41-0.102-0.826-0.14-1.248c-0.037,0.224-0.068,0.46-0.093,0.708s-0.056,0.503-0.093,0.764
		c-0.099-0.199-0.168-0.348-0.205-0.447c-0.261-0.621-0.696-1.087-1.304-1.397l-2.05-1.677l-1.304,4.975
		c0.944,0.385,1.621,0.652,2.031,0.801c0.323,0.124,0.693,0.41,1.109,0.857c0.416,0.447,0.786,0.869,1.109,1.267
		c-0.447,3.143-1.081,7.496-1.9,13.061c-0.273-0.534-0.528-1.025-0.764-1.472c-0.236-0.447-0.416-0.795-0.54-1.043
		c-0.422-0.708-1.658-2.043-3.708-4.006c-1.043-0.758-1.696-1.342-1.956-1.751c-0.261-0.41-0.425-0.851-0.494-1.323
		c-0.068-0.472-0.283-0.994-0.643-1.565c-0.36-0.559-0.733-1.019-1.118-1.379c-0.385-0.36-0.727-0.727-1.025-1.099
		c-0.584-0.646-0.826-1.435-0.727-2.366c0.037-0.509,0.211-0.851,0.522-1.025l0.596,1.025c1.118,0.882,1.807,1.503,2.068,1.863
		s0.534,0.733,0.82,1.118c-0.733-2-1.279-3.23-1.64-3.689c-0.373-0.46-0.72-0.767-1.043-0.922c-0.323-0.155-0.559-0.363-0.708-0.624
		c-0.161-0.261-0.897-1.037-2.208-2.329c-1.31-1.292-2.115-2.199-2.413-2.72c-0.696-1.118-1.043-2.081-1.043-2.888
		c0-0.211-0.196-0.829-0.587-1.854s-0.811-1.978-1.258-2.86l-0.857-7.192h10.583l1.118,14.067l1.137,13.583
		c0.385-6.956,1.385-16.173,3-27.65h4.993c0.783,3.155,1.596,6.416,2.441,9.782c0.845,3.366,1.63,6.521,2.357,9.465
		s1.36,5.531,1.9,7.76c0.54,2.23,0.904,3.779,1.09,4.649c0.149,0.758,0.463,1.897,0.941,3.419c0.478,1.522,1.059,3.27,1.742,5.245
		H258.512z M275.169,113.727c-0.621-0.696-1.199-1.161-1.733-1.397c-0.671-0.248-1.239-0.481-1.705-0.699
		c-0.466-0.217-0.823-0.202-1.071,0.047c-0.261,0.261-0.758,0.59-1.491,0.988c-0.733,0.397-0.82,0.919-0.261,1.565
		c0.534,0.671,1.084,1.149,1.649,1.435c0.565,0.286,1.109,0.665,1.63,1.137c0.298,0.273,0.671,0.606,1.118,0.997
		s0.863,0.748,1.248,1.071l-2.422,20.29h-1.975c-0.05-0.174-0.081-0.304-0.093-0.391c-0.571-2.422-1.401-5.5-2.487-9.232
		c-1.087-3.733-2.251-7.661-3.494-11.785c0.335-3.652,0.727-7.267,1.174-10.844c1.043,0.708,1.702,1.081,1.975,1.118
		c0.211,0.037,0.463,0.227,0.755,0.568c0.292,0.342,0.55,0.568,0.773,0.68c0.211,0.112,0.553-0.087,1.025-0.596
		c-1.019-1.205-1.727-2.031-2.124-2.478c-0.261-0.273-0.602-0.55-1.025-0.829c-0.422-0.279-0.789-0.506-1.099-0.68
		c0.075-0.658,0.158-1.314,0.252-1.966c0.093-0.652,0.189-1.307,0.289-1.966c0.199,0.211,0.391,0.404,0.578,0.578
		c0.186,0.174,0.354,0.385,0.503,0.633c0.211,0.41,0.845,1.36,1.9,2.851c1.341,1.006,2.143,1.64,2.404,1.9
		c0.248,0.261,0.95,1.037,2.105,2.329l0.373-1.453c-1.304-2.36-2.23-3.726-2.776-4.099c-0.559-0.36-0.91-0.562-1.053-0.606
		c-0.143-0.043-0.45-0.326-0.922-0.848c-0.472-0.509-0.801-0.941-0.987-1.295s-0.391-0.68-0.615-0.978
		c-0.05-0.05-0.255-0.36-0.615-0.932h9.987L275.169,113.727z"/>
	<path id="XMLID_27_" style="fill:#8DC63F;" d="M290.352,87.201v63.598h63.598V87.201H290.352z M315.705,99.147
		c1.801-0.745,3.844-1.13,6.13-1.155l5.683,8.962l3.857,7.937c0.422,0.571,0.801,1.081,1.137,1.528h-5.85l-1.975-2.217l-0.559-0.708
		v-4.08c0-2.05-0.112-3.329-0.335-3.838c-0.248-0.509-0.764-0.764-1.546-0.764c-0.907,0-1.478,0.311-1.714,0.932
		c-0.236,0.621-0.354,1.832-0.354,3.633l-1.36-2.105l-2.31-3.186l-0.913-1.453l-1.118-1.733l-1.099-0.447
		C314.034,99.98,314.81,99.545,315.705,99.147z M309.575,106.526c0.149-0.944,0.453-1.857,0.913-2.739l1.174,0.876l2.59,4.043
		l5.925,5.422v9.316l-5.478-6.055l-5.422-5.254C309.289,109.811,309.388,107.942,309.575,106.526z M330.07,138.033
		c-0.012,0-0.019,0.006-0.019,0.019c-2.112,1.304-4.695,1.956-7.751,1.956c-3.23,0-5.863-0.553-7.9-1.658
		c-2.074-1.118-3.447-2.658-4.118-4.621c-0.671-1.975-1.006-4.938-1.006-8.888v-7.639l3.317,2.459
		c1.751,1.168,2.981,2.105,3.689,2.813c0.385,0.397,0.956,1.087,1.714,2.068c0.758,0.981,1.484,1.938,2.18,2.869v1.043
		c0,1.987,0.118,3.267,0.354,3.838c0.236,0.596,0.783,0.894,1.64,0.894c0.807,0,1.335-0.298,1.584-0.894
		c0.05-0.137,0.112-0.373,0.186-0.708l0.224,0.186l1.919,3.149L330.07,138.033l-2.404-3.279l3.894,2.199
		C331.101,137.337,330.604,137.697,330.07,138.033z M334.113,133.468c-0.46,1.255-1.292,2.404-2.497,3.447l-1.509-2.348
		l-3.503-4.211l-2.478-2.59v-4.733h3.279l2.981,3.298l4.136,3.764l0.224,0.354C334.598,131.642,334.386,132.648,334.113,133.468z
		 M335.026,124.599c0,0.087,0,0.174,0,0.261s0,0.168,0,0.242l-1.491-1.081l-1.043-0.988h2.534V124.599z M335.026,114.277
		c-0.211-0.273-0.373-0.522-0.484-0.745c-0.286-0.509-0.882-1.413-1.789-2.711c-0.907-1.298-1.882-2.689-2.925-4.174
		s-2.046-2.919-3.009-4.304c-0.963-1.385-1.637-2.419-2.022-3.102c-0.161-0.273-0.41-0.658-0.745-1.155
		c2.273,0.211,4.236,0.776,5.888,1.696c2.074,1.23,3.447,2.72,4.118,4.472c0.646,1.776,0.969,4.559,0.969,8.347V114.277z"/>
	<g id="XMLID_2_">
		<path id="XMLID_42_" style="fill:#8DC63F;" d="M390.302,107.839c-1.105,7.714-1.795,13.353-2.068,16.918h3.726
			c-0.286-2.273-0.565-4.823-0.838-7.648C390.849,114.283,390.576,111.193,390.302,107.839z"/>
		<path id="XMLID_44_" style="fill:#8DC63F;" d="M358.401,87.201v63.598h63.598V87.201H358.401z M376.421,139.16l0.391-2.813
			c0.211,0.447,0.432,0.907,0.661,1.379s0.463,0.95,0.699,1.435H376.421z M392.799,139.16l-0.298-4.08
			c0.72,0.559,1.205,0.988,1.453,1.286c0.373,0.484,0.742,0.832,1.109,1.043s0.68,0.503,0.941,0.876
			c0.149,0.236,0.373,0.528,0.671,0.876H392.799z M399.674,139.16c-0.348-0.149-0.599-0.258-0.755-0.326s-0.45-0.301-0.885-0.699
			c-0.522-0.447-0.897-0.838-1.127-1.174s-0.463-0.633-0.699-0.894c-0.261-0.261-0.562-0.618-0.904-1.071s-0.792-0.929-1.351-1.425
			c-0.373-0.298-0.907-0.484-1.602-0.559l-0.093-1.099h-3.894l-0.652,7.248h-4.546c-1.118-1.9-2.071-3.587-2.86-5.059
			s-1.301-2.581-1.537-3.326c-0.124-0.373-0.441-0.956-0.95-1.751l4.155-30.184h15.763l6.242,40.32H399.674z"/>
	</g>
	<path id="XMLID_52_" style="fill:#8DC63F;" d="M425.814,87.201v63.598h63.598V87.201H425.814z M464.218,99.324
		c1.987,0.882,3.31,1.994,3.969,3.335c0.646,1.317,0.969,3.584,0.969,6.801v0.671l-4.341-4.844l-2.963-3.875l-3.82-3.391
		C460.393,98.12,462.455,98.554,464.218,99.324z M450.505,138.433c-2.062-1.056-3.41-2.41-4.043-4.062
		c-0.41-0.994-0.689-2.341-0.838-4.043l1.491,1.025l3.764,3.764l5.198,4.043l0.857,0.82
		C454.424,139.856,452.281,139.34,450.505,138.433z M469.007,135.21c-0.696,1.379-2.043,2.522-4.043,3.428
		c-0.845,0.397-1.689,0.689-2.534,0.876l-4.043-3.82l-4.043-3.186l-2.888-2.888l-5.962-3.447v-1.435h10.117v4.9
		c0,1.503,0.143,2.472,0.429,2.907c0.298,0.435,0.807,0.652,1.528,0.652c0.733,0,1.273-0.273,1.621-0.82
		c0.348-0.559,0.522-1.373,0.522-2.441c0-2.372-0.335-3.925-1.006-4.658c-0.708-0.733-2.41-1.95-5.105-3.652
		c-2.807-1.814-4.602-3.074-5.385-3.782c-0.882-0.758-1.609-1.832-2.18-3.223c-0.584-1.342-0.876-3.105-0.876-5.292
		c0-3.093,0.41-5.347,1.23-6.763c0.82-1.428,2.143-2.546,3.969-3.354c1.205-0.522,2.609-0.882,4.211-1.081l2.199,1.528l2.795,4.565
		c2.683,2.223,4.379,3.683,5.087,4.379c0.658,0.671,1.056,1.233,1.192,1.686c0.137,0.453,0.205,0.711,0.205,0.773h-7.006v-3
		c0-1.379-0.13-2.267-0.391-2.664c-0.261-0.385-0.696-0.578-1.304-0.578c-0.646,0-1.137,0.261-1.472,0.783
		c-0.335,0.509-0.503,1.286-0.503,2.329c0,1.354,0.186,2.372,0.559,3.056c0.348,0.671,1.379,1.491,3.093,2.459
		c4.82,2.77,7.869,5.043,9.148,6.819c1.267,1.776,1.9,4.639,1.9,8.589C470.069,131.738,469.715,133.856,469.007,135.21z"/>
	<path id="XMLID_60_" style="fill:#8DC63F;" d="M493.069,87.201v63.598h63.598V87.201H493.069z M534.324,139.16h-18.912v-18.502
		c0.012,0.037,0.031,0.071,0.056,0.102c0.025,0.031,0.05,0.059,0.075,0.084c0.224,0.36,0.506,0.953,0.848,1.779
		c0.342,0.826,0.674,1.668,0.997,2.525c0.323,0.857,0.72,1.938,1.192,3.242l1.472,1.751l0.783,3.149l2.869,3.167l-1.248-3.335
		l3.205,2.273l-0.671-2.441l-1.994-4.211l-2.385-4.043l-4.807-8.943l-0.391-0.578V98.84h18.185v8.068h-7.285v5.087l-0.876-1.956
		l-0.615-1.658l-1.714-0.783l-0.391,2.553l0.559,1.565l0.876,1.9l1.267,1.994l0.037,2.348l1.118,1.23l3.223,2.776l-0.279-1.118
		l-0.317-2.441l-0.54-0.671l-1.211-1.9l-0.354-1.286h6.037v7.676h-6.819v8.869h8.012V139.16z"/>
</g>
</svg>
