<?xml version="1.0" encoding="iso-8859-1"?>
<!-- Generator: Adobe Illustrator 19.0.0, SVG Export Plug-In . SVG Version: 6.00 Build 0)  -->
<svg version="1.1" id="Layer_1" xmlns="http://www.w3.org/2000/svg" xmlns:xlink="http://www.w3.org/1999/xlink" x="0px" y="0px"
	 viewBox="0 0 578 238" style="enable-background:new 0 0 578 238;" xml:space="preserve">
<rect id="XMLID_3_" x="-44" y="-10" style="fill:#3A4853;" width="682" height="260"/>
<g id="XMLID_1_">
	<g id="XMLID_281_">
		<path id="XMLID_310_" style="fill:#FBB040;" d="M95.81,163.69c-3.674-0.193-6.849-1.032-9.523-2.514
			c-2.675-1.481-4.915-3.399-6.719-5.753c-1.805-2.352-3.183-5.01-4.133-7.976c-0.951-2.965-1.54-6.042-1.765-9.233l15.324-3.094
			c0.064,1.806,0.201,3.618,0.411,5.438c0.209,1.821,0.563,3.497,1.063,5.027c0.5,1.531,1.176,2.845,2.03,3.94
			c0.854,1.096,1.958,1.82,3.312,2.175V163.69z M90.058,122.215l-3.48-3.287c-1.612-1.418-3.183-2.884-4.713-4.398
			c-1.531-1.515-2.9-3.174-4.108-4.979c-1.209-1.805-2.176-3.811-2.9-6.019c-0.726-2.207-1.088-4.696-1.088-7.469
			c0-3.222,0.515-6.13,1.547-8.725c1.031-2.594,2.489-4.826,4.375-6.695c1.885-1.868,4.14-3.343,6.768-4.423
			c2.626-1.079,5.535-1.716,8.725-1.909v11.746c-1.063,0.097-1.999,0.396-2.804,0.895c-0.806,0.5-1.474,1.12-2.006,1.861
			c-0.531,0.741-0.927,1.595-1.184,2.562c-0.258,0.967-0.387,1.981-0.387,3.046c0,1.449,0.185,2.803,0.556,4.061
			c0.37,1.256,0.886,2.434,1.547,3.528c0.66,1.096,1.433,2.136,2.32,3.118c0.886,0.983,1.844,1.926,2.876,2.828
			c0.451,0.419,1.063,0.99,1.837,1.716c0.773,0.725,1.579,1.474,2.417,2.247L90.058,122.215z M102.046,113.61l1.789,1.595
			c2.094,1.934,4.068,3.908,5.922,5.922c1.853,2.015,3.463,4.15,4.834,6.405c1.369,2.256,2.457,4.688,3.263,7.3
			c0.805,2.609,1.208,5.479,1.208,8.604c0,3.03-0.548,5.77-1.644,8.219c-1.096,2.449-2.586,4.552-4.471,6.308
			c-1.886,1.757-4.093,3.135-6.623,4.134c-2.53,0.998-5.229,1.547-8.097,1.643v-11.795c1.095-0.063,2.022-0.306,2.779-0.725
			c0.757-0.418,1.378-0.982,1.861-1.691s0.829-1.523,1.039-2.441c0.209-0.919,0.314-1.926,0.314-3.021
			c0-1.805-0.298-3.553-0.895-5.245c-0.597-1.691-1.386-3.312-2.368-4.858c-0.984-1.547-2.103-3.021-3.36-4.423
			c-1.257-1.401-2.546-2.714-3.867-3.939l-1.934-1.788L102.046,113.61z M97.599,74.262c2.964,0.065,5.711,0.652,8.242,1.765
			c2.53,1.111,4.729,2.618,6.599,4.52c1.869,1.902,3.359,4.149,4.472,6.743c1.111,2.595,1.731,5.391,1.861,8.387v1.789
			l-15.517,2.417c0-0.451,0.016-0.919,0.048-1.401c0.032-0.484,0.048-0.983,0.048-1.499c-0.065-1.095-0.21-2.224-0.435-3.384
			c-0.226-1.16-0.556-2.239-0.991-3.238c-0.436-0.999-1.008-1.869-1.716-2.611c-0.709-0.74-1.58-1.256-2.61-1.547V74.262z"/>
		<path id="XMLID_307_" style="fill:#FBB040;" d="M142.506,162.047h-15.275V75.905h15.324L142.506,162.047z M173.444,75.905v86.142
			h-15.42v-39.155h-13.1v-9.765h13.1V75.905H173.444z"/>
		<path id="XMLID_304_" style="fill:#FBB040;" d="M206.702,86.25c-1.644,0.193-2.981,0.733-4.012,1.619
			c-1.032,0.887-1.845,1.99-2.441,3.312c-0.597,1.322-0.999,2.764-1.208,4.326c-0.21,1.563-0.314,3.118-0.314,4.665v37.705
			c0,1.547,0.104,3.103,0.314,4.665c0.209,1.563,0.604,2.997,1.184,4.302c0.58,1.306,1.394,2.401,2.441,3.287
			c1.047,0.887,2.393,1.426,4.037,1.619v11.893c-4.416-0.13-8.105-0.984-11.07-2.563c-2.965-1.578-5.35-3.682-7.154-6.309
			c-1.805-2.626-3.094-5.68-3.867-9.16s-1.16-7.203-1.16-11.166v-30.503c0-4.028,0.378-7.814,1.136-11.36
			c0.757-3.544,2.038-6.646,3.843-9.305c1.804-2.659,4.197-4.777,7.178-6.357c2.98-1.578,6.679-2.448,11.094-2.609V86.25z
			 M209.119,74.311c4.415,0.161,8.113,1.031,11.094,2.609c2.98,1.58,5.381,3.698,7.202,6.357c1.82,2.658,3.118,5.752,3.892,9.281
			c0.773,3.528,1.16,7.323,1.16,11.384v30.164c0,3.964-0.387,7.703-1.16,11.215c-0.773,3.513-2.063,6.599-3.867,9.257
			c-1.805,2.659-4.198,4.803-7.179,6.43c-2.981,1.627-6.695,2.505-11.142,2.635V151.75c1.675-0.193,3.037-0.725,4.084-1.595
			c1.047-0.87,1.861-1.958,2.441-3.263c0.58-1.306,0.974-2.747,1.185-4.326c0.209-1.579,0.314-3.143,0.314-4.689v-37.705
			c0-1.547-0.105-3.109-0.314-4.689c-0.21-1.578-0.613-3.021-1.209-4.326c-0.597-1.305-1.418-2.4-2.465-3.287
			c-1.048-0.886-2.393-1.426-4.037-1.619V74.311z"/>
		<path id="XMLID_299_" style="fill:#FBB040;" d="M262.679,162.047h-12.52l-12.568-86.142h13.197l5.462,45.005L262.679,162.047z
			 M269.882,115.447l-5.511,41.91l-5.656-36.496l5.897-38.527L269.882,115.447z M266.111,75.905h11.602l6.816,45.053l6.429,41.089
			H279.55L266.111,75.905z M287.091,120.958l5.511-45.053h13.196l-12.472,86.142L287.091,120.958z"/>
		<path id="XMLID_295_" style="fill:#FBB040;" d="M333.594,86.25c-1.644,0.193-2.973,0.733-3.988,1.619
			c-1.015,0.887-1.813,1.99-2.393,3.312c-0.58,1.322-0.967,2.764-1.16,4.326c-0.193,1.563-0.29,3.118-0.29,4.665v37.656
			c0,1.547,0.097,3.103,0.29,4.665c0.193,1.563,0.58,3.006,1.16,4.327s1.378,2.425,2.393,3.311c1.016,0.887,2.345,1.426,3.988,1.619
			v11.893c-4.447-0.13-8.146-1.008-11.094-2.635c-2.949-1.627-5.317-3.771-7.106-6.43c-1.788-2.658-3.054-5.744-3.795-9.257
			c-0.741-3.512-1.111-7.251-1.111-11.215v-30.164c0-4.028,0.37-7.814,1.111-11.36c0.741-3.544,2.007-6.646,3.795-9.305
			c1.789-2.659,4.165-4.777,7.13-6.357c2.965-1.578,6.654-2.448,11.07-2.609V86.25z M336.011,74.311
			c4.092,0.161,7.548,0.975,10.369,2.44c2.819,1.467,5.1,3.449,6.84,5.946c1.74,2.498,2.988,5.438,3.746,8.822
			c0.757,3.383,1.136,7.041,1.136,10.973v6.574h-14.985v-7.348c0-1.708-0.081-3.432-0.241-5.172
			c-0.162-1.74-0.492-3.336-0.991-4.786c-0.5-1.45-1.217-2.666-2.151-3.649c-0.935-0.982-2.175-1.587-3.722-1.813V74.311z
			 M336.011,151.702c1.547-0.225,2.787-0.821,3.722-1.788s1.651-2.176,2.151-3.626c0.499-1.45,0.838-3.053,1.016-4.81
			c0.176-1.756,0.266-3.521,0.266-5.293v-8.219h14.937v6.623c-0.064,3.739-0.443,7.323-1.136,10.756
			c-0.693,3.432-1.878,6.478-3.553,9.136c-1.677,2.659-3.924,4.81-6.743,6.454c-2.821,1.643-6.374,2.545-10.659,2.707V151.702z"/>
		<path id="XMLID_292_" style="fill:#FBB040;" d="M386.912,108.196l-4.157,25.62h8.798l1.306,8.943h-11.215l-3.723,19.287h-15.13
			l18.272-86.142L386.912,108.196z M383.577,75.905h11.698l18.272,86.142h-14.744l-9.571-54.865L383.577,75.905z"/>
		<path id="XMLID_287_" style="fill:#FBB040;" d="M439.409,163.69c-3.674-0.193-6.849-1.032-9.522-2.514
			c-2.676-1.481-4.915-3.399-6.72-5.753c-1.805-2.352-3.183-5.01-4.133-7.976c-0.951-2.965-1.539-6.042-1.765-9.233l15.324-3.094
			c0.063,1.806,0.2,3.618,0.41,5.438c0.21,1.821,0.563,3.497,1.063,5.027c0.5,1.531,1.177,2.845,2.03,3.94s1.958,1.82,3.312,2.175
			V163.69z M433.657,122.215l-3.48-3.287c-1.612-1.418-3.184-2.884-4.714-4.398s-2.9-3.174-4.108-4.979
			c-1.209-1.805-2.176-3.811-2.9-6.019c-0.726-2.207-1.088-4.696-1.088-7.469c0-3.222,0.516-6.13,1.547-8.725
			c1.031-2.594,2.489-4.826,4.375-6.695c1.885-1.868,4.141-3.343,6.768-4.423c2.626-1.079,5.535-1.716,8.726-1.909v11.746
			c-1.063,0.097-1.999,0.396-2.804,0.895c-0.807,0.5-1.475,1.12-2.007,1.861c-0.531,0.741-0.927,1.595-1.184,2.562
			c-0.259,0.967-0.387,1.981-0.387,3.046c0,1.449,0.185,2.803,0.556,4.061c0.37,1.256,0.886,2.434,1.547,3.528
			c0.66,1.096,1.434,2.136,2.32,3.118c0.886,0.983,1.845,1.926,2.876,2.828c0.451,0.419,1.063,0.99,1.837,1.716
			c0.773,0.725,1.579,1.474,2.417,2.247L433.657,122.215z M445.646,113.61l1.788,1.595c2.095,1.934,4.068,3.908,5.922,5.922
			c1.853,2.015,3.464,4.15,4.834,6.405c1.369,2.256,2.457,4.688,3.263,7.3c0.806,2.609,1.209,5.479,1.209,8.604
			c0,3.03-0.549,5.77-1.644,8.219c-1.097,2.449-2.587,4.552-4.472,6.308c-1.886,1.757-4.093,3.135-6.623,4.134
			c-2.53,0.998-5.229,1.547-8.097,1.643v-11.795c1.096-0.063,2.022-0.306,2.779-0.725c0.757-0.418,1.378-0.982,1.861-1.691
			s0.829-1.523,1.039-2.441c0.21-0.919,0.314-1.926,0.314-3.021c0-1.805-0.298-3.553-0.895-5.245
			c-0.597-1.691-1.386-3.312-2.368-4.858c-0.983-1.547-2.103-3.021-3.359-4.423c-1.257-1.401-2.547-2.714-3.867-3.939l-1.934-1.788
			L445.646,113.61z M441.198,74.262c2.964,0.065,5.711,0.652,8.241,1.765c2.53,1.111,4.729,2.618,6.599,4.52
			c1.869,1.902,3.359,4.149,4.472,6.743c1.111,2.595,1.731,5.391,1.861,8.387v1.789l-15.518,2.417c0-0.451,0.016-0.919,0.049-1.401
			c0.031-0.484,0.048-0.983,0.048-1.499c-0.064-1.095-0.21-2.224-0.435-3.384c-0.227-1.16-0.557-2.239-0.991-3.238
			c-0.436-0.999-1.008-1.869-1.716-2.611c-0.71-0.74-1.58-1.256-2.61-1.547V74.262z"/>
		<path id="XMLID_282_" style="fill:#FBB040;" d="M470.83,162.047V75.905h15.275v86.142H470.83z M488.522,75.905h16.968v10.683
			h-16.968V75.905z M488.522,112.016h11.36v10.876h-11.36V112.016z M488.522,151.363h16.968v10.684h-16.968V151.363z"/>
	</g>
</g>
<g id="XMLID_14_">
	<path id="XMLID_17_" style="fill:#FBB040;" d="M554.14,203.976H25.118V32.333H554.14V203.976z M39.118,189.976H540.14V46.333
		H39.118V189.976z"/>
</g>
</svg>
