<?xml version="1.0" encoding="iso-8859-1"?>
<!-- Generator: Adobe Illustrator 19.0.0, SVG Export Plug-In . SVG Version: 6.00 Build 0)  -->
<svg version="1.1" id="Layer_1" xmlns="http://www.w3.org/2000/svg" xmlns:xlink="http://www.w3.org/1999/xlink" x="0px" y="0px"
	 viewBox="0 0 578 238" style="enable-background:new 0 0 578 238;" xml:space="preserve">
<g id="XMLID_1_">
	<path id="XMLID_3_" style="fill:#414042;" d="M206.224,117.069c-0.967,0.86-1.988,1.505-3.06,1.932
		c-1.075,0.429-2.202,0.805-3.383,1.128c-0.539,0.538-1.075,1.449-1.611,2.737c-0.539,1.29-1.047,2.738-1.53,4.349
		c-0.483,1.611-0.913,3.25-1.288,4.912c-0.378,1.667-0.672,3.089-0.886,4.269c-1.183,5.049-2.576,9.881-4.187,14.496
		c-1.611,4.618-3.813,9.076-6.604,13.368c-2.794,4.294-6.121,8.187-9.987,11.677c-3.865,3.489-8.27,6.04-13.207,7.651
		c-3.438,1.181-7.088,1.744-10.953,1.691c-3.865-0.055-7.517-0.724-10.952-2.013c-5.154-2.04-9.423-5.315-12.805-9.825
		c-3.383-4.51-4.968-9.559-4.751-15.141c0.105-2.468,0.588-4.804,1.449-7.006c0.858-2.199,1.877-4.107,3.06-5.718
		c1.18-1.611,2.738-2.981,4.671-4.107c1.933-1.128,4.133-1.744,6.604-1.853c-1.505-3.649-2.471-7.49-2.899-11.517
		c-0.431-4.027-0.378-7.811,0.16-11.354c0.645-4.724,1.772-9.314,3.383-13.771c1.611-4.455,3.649-8.723,6.121-12.805l-0.161-0.161
		c-1.611-2.577-2.766-5.476-3.463-8.698c-0.7-3.221-0.861-6.388-0.484-9.503c0.375-3.114,1.342-6.013,2.9-8.698
		c1.555-2.683,3.891-4.777,7.006-6.282c0.106-0.105,0.456-0.267,1.048-0.483c0.588-0.214,1.18-0.375,1.771-0.483
		c0.589-0.106,1.1-0.134,1.53-0.081c0.428,0.056,0.536,0.297,0.322,0.725c-0.645,1.505-1.289,3.196-1.933,5.073
		c-0.644,1.88-1.208,3.865-1.691,5.96c-0.484,2.094-0.753,4.215-0.805,6.362c-0.056,2.149,0.186,4.135,0.724,5.96
		c3.865-4.832,8.295-9.314,13.288-13.449c4.993-4.132,10.389-7.382,16.188-9.744c2.79-1.073,5.823-1.986,9.1-2.738
		c3.274-0.75,6.604-1.153,9.986-1.208c3.383-0.053,6.657,0.322,9.825,1.128c3.166,0.805,6.04,2.23,8.617,4.268
		c2.469,1.932,4.052,4.134,4.752,6.604c0.697,2.471,0.805,5.021,0.322,7.651c-0.483,2.632-1.424,5.181-2.819,7.651
		c-1.397,2.471-3.007,4.671-4.832,6.603c-4.51,4.832-9.933,8.645-16.268,11.436c-6.337,2.794-12.724,4.618-19.167,5.476
		c-3.76,0.539-7.598,0.645-11.516,0.322c-3.921-0.322-7.598-1.233-11.033-2.738c-2.471,4.51-4.698,9.209-6.684,14.093
		c-1.988,4.888-3.249,9.961-3.785,15.22c-0.216,2.15-0.216,4.377,0,6.685c0.214,2.311,0.778,4.429,1.692,6.363
		c0.911,1.932,2.174,3.542,3.784,4.832c1.611,1.288,3.705,2.094,6.282,2.416c2.255,0.215,4.374-0.134,6.362-1.048
		c1.986-0.911,3.838-2.147,5.557-3.704c1.716-1.556,3.302-3.247,4.751-5.074c1.45-1.825,2.764-3.544,3.946-5.154
		c1.825-2.359,3.516-4.775,5.073-7.248c1.556-2.468,3.408-4.832,5.557-7.086c-3.438,0.109-6.793,0.297-10.067,0.563
		c-3.277,0.269-6.418,1.156-9.423,2.658c-0.539,0.322-0.886,0.189-1.047-0.403c-0.161-0.59-0.189-1.37-0.081-2.336
		c0.106-0.966,0.322-1.958,0.645-2.979c0.322-1.019,0.75-1.852,1.288-2.497c1.18-1.716,2.738-3.033,4.671-3.946
		c1.933-0.912,3.972-1.369,6.121-1.369c1.932,0,4.079,0.564,6.443,1.691c2.36,1.128,4.724,1.961,7.087,2.497
		c2.039-1.717,4.293-2.9,6.764-3.544c3.005-0.749,5.099-0.536,6.282,0.644C209.176,113.58,208.585,115.136,206.224,117.069z
		 M147.112,152.503c-2.685-1.611-5.048-3.972-7.087-7.088c-2.899,1.933-4.993,4.083-6.281,6.443
		c-1.397,2.364-2.311,4.969-2.738,7.813c-0.43,2.845-0.322,5.609,0.322,8.294c0.644,2.683,1.852,5.019,3.624,7.007
		c1.772,1.985,4.213,3.302,7.328,3.946c2.791,0.535,5.396,0.508,7.812-0.082c2.416-0.591,4.616-1.586,6.604-2.979
		c1.986-1.397,3.81-3.061,5.476-4.992c1.663-1.933,3.141-4.027,4.429-6.282c1.394-2.361,2.683-4.723,3.865-7.088
		c1.18-2.359,2.361-4.775,3.544-7.248c-2.041,1.29-4.163,2.391-6.363,3.303c-2.202,0.912-4.457,1.529-6.764,1.851
		c-2.311,0.322-4.618,0.269-6.926-0.16C151.648,154.814,149.367,153.9,147.112,152.503z M193.178,64.56
		c-6.443,3.115-12.269,7.167-17.476,12.16c-5.21,4.993-9.853,10.497-13.932,16.509c4.188,2.149,8.859,3.277,14.013,3.383
		c5.154,0.109,10.308-0.589,15.462-2.094c4.08-1.18,8.053-2.764,11.92-4.752c3.865-1.986,7.192-4.643,9.986-7.973
		c0.967-1.18,1.933-2.63,2.9-4.348c0.966-1.717,1.636-3.463,2.013-5.235c0.374-1.772,0.322-3.488-0.161-5.154
		c-0.484-1.663-1.586-3.085-3.302-4.268c-1.611-0.967-3.329-1.556-5.154-1.772c-1.827-0.214-3.705-0.186-5.637,0.081
		c-1.933,0.269-3.813,0.724-5.637,1.368C196.344,63.111,194.68,63.81,193.178,64.56z"/>
	<path id="XMLID_7_" style="fill:#414042;" d="M279.186,134.463c0.322-0.857,0.75-1.422,1.289-1.691
		c0.536-0.267,1.047-0.322,1.53-0.16c0.484,0.16,0.831,0.538,1.047,1.126c0.214,0.591,0.161,1.317-0.16,2.175
		c-3.007,8.053-7.088,14.496-12.241,19.328c-5.154,4.832-10.686,7.248-16.59,7.248c-3.973,0-7.114-0.993-9.422-2.981
		c-2.311-1.985-3.571-5.018-3.785-9.099c-2.255,4.082-4.699,7.114-7.329,9.099c-2.632,1.988-5.718,2.981-9.261,2.981
		c-7.087,0-11.758-3.166-14.012-9.504c-2.255-6.334-1.611-15.301,1.932-26.899c1.073-3.542,2.388-7.059,3.946-10.549
		c1.556-3.488,3.383-6.576,5.476-9.261c2.094-2.683,4.482-4.857,7.168-6.523c2.683-1.664,5.637-2.497,8.859-2.497h4.832
		c-3.33,6.659-6.363,13.53-9.1,20.616c-2.738,7.088-4.913,13.585-6.524,19.489c-1.611,5.908-2.496,10.767-2.657,14.578
		c-0.161,3.813,0.725,5.718,2.657,5.718c1.503,0,3.005-0.67,4.51-2.013c1.502-1.342,2.979-3.086,4.429-5.235
		c1.449-2.147,2.844-4.483,4.187-7.007c1.342-2.521,2.497-5.018,3.464-7.489c0-0.214,0.105-0.536,0.322-0.967l9.342-27.22
		c1.18-3.113,3.085-5.637,5.718-7.57c2.63-1.933,5.61-2.9,8.939-2.9h8.537c-2.577,7.304-4.941,14.121-7.087,20.456
		c-0.967,2.685-1.908,5.395-2.819,8.134c-0.914,2.738-1.799,5.315-2.658,7.731c-0.86,2.416-1.611,4.565-2.255,6.443
		c-0.644,1.88-1.127,3.302-1.449,4.269c-1.397,3.865-1.908,6.631-1.53,8.294c0.375,1.666,1.314,2.496,2.819,2.496
		c0.859,0,1.986-0.346,3.383-1.046c1.394-0.697,2.925-1.853,4.591-3.464c1.663-1.611,3.355-3.729,5.073-6.363
		C276.071,141.577,277.682,138.329,279.186,134.463z"/>
	<path id="XMLID_2_" style="fill:#F7941E;" d="M308.338,92.103c2.683-0.214,5.099-1.45,7.248-3.705
		c2.039-2.255,3.113-4.832,3.221-7.731c0.105-2.9-0.752-5.316-2.576-7.248c-1.828-1.825-4.082-2.63-6.765-2.416
		c-2.685,0.216-5.101,1.449-7.248,3.704c-2.042,2.255-3.116,4.832-3.221,7.732c-0.109,2.899,0.75,5.315,2.576,7.248
		C303.398,91.514,305.653,92.319,308.338,92.103z"/>
	<path id="XMLID_18_" style="fill:#414042;" d="M317.439,132.612c-0.483-0.162-0.994-0.107-1.53,0.16
		c-0.538,0.269-0.966,0.834-1.288,1.691c-1.505,3.866-3.116,7.114-4.832,9.744c-1.719,2.633-3.41,4.752-5.074,6.362
		c-1.666,1.611-3.196,2.767-4.59,3.464c-1.397,0.7-2.525,1.046-3.383,1.046c-1.504,0-2.443-0.831-2.819-2.496
		c-0.378-1.663,0.134-4.429,1.53-8.294c0.322-0.967,0.805-2.389,1.45-4.269c0.643-1.878,1.394-4.027,2.254-6.443
		c0.859-2.416,1.744-4.992,2.658-7.731c0.911-2.738,1.853-5.449,2.819-8.134c2.147-6.335,4.51-13.152,7.088-20.456h-8.538
		c-3.328,0-6.309,0.967-8.939,2.9c-2.632,1.932-4.538,4.457-5.718,7.57l-9.342,27.22c-1.611,4.727-2.521,8.834-2.738,12.322
		c-0.214,3.49,0.161,6.363,1.128,8.617c0.967,2.256,2.469,3.921,4.51,4.994c2.039,1.074,4.51,1.611,7.409,1.611
		c5.905,0,11.437-2.416,16.591-7.248c5.153-4.832,9.233-11.275,12.241-19.328c0.322-0.859,0.374-1.584,0.16-2.175
		C318.27,133.15,317.922,132.772,317.439,132.612z"/>
	<path id="XMLID_12_" style="fill:#414042;" d="M388.386,134.463c0.322-0.857,0.779-1.422,1.37-1.691
		c0.588-0.267,1.128-0.322,1.611-0.16c0.483,0.16,0.831,0.538,1.046,1.126c0.214,0.591,0.162,1.317-0.16,2.175
		c-3.007,8.053-7.114,14.496-12.322,19.328c-5.21,4.832-10.71,7.248-16.509,7.248c-3.973,0-7.114-0.967-9.422-2.899
		c-2.311-1.933-3.571-4.994-3.784-9.181v-0.322c-2.473,3.116-5.423,5.96-8.859,8.536c-3.438,2.578-7.41,3.866-11.92,3.866
		c-4.727,0-8.403-1.611-11.033-4.832c-2.633-3.221-4.16-7.248-4.591-12.08c-0.428-4.832,0.189-10.067,1.853-15.704
		c1.663-5.637,4.455-10.872,8.376-15.704c3.918-4.832,8.911-8.859,14.979-12.08c6.065-3.221,13.233-4.832,21.502-4.832
		c1.073,0,2.039,0.028,2.899,0.081c0.859,0.055,1.718,0.135,2.578,0.241l9.181-26.415c1.825-5.477,4.267-9.368,7.328-11.677
		c3.059-2.308,7.542-3.464,13.449-3.464h3.866c-5.585,15.893-10.524,30.175-14.819,42.844c-1.828,5.371-3.652,10.686-5.477,15.946
		c-1.826,5.262-3.462,10.014-4.912,14.255c-1.449,4.242-2.657,7.731-3.624,10.469c-0.966,2.738-1.505,4.324-1.611,4.752
		c-1.397,3.865-1.908,6.631-1.53,8.294c0.376,1.666,1.315,2.496,2.819,2.496c0.859,0,1.987-0.346,3.383-1.046
		c1.394-0.697,2.899-1.853,4.51-3.464c1.611-1.611,3.275-3.729,4.992-6.363C385.272,141.577,386.882,138.329,388.386,134.463z
		 M335.879,155.402c1.288,0,2.55-0.374,3.784-1.128c1.233-0.749,2.441-1.771,3.624-3.059c1.181-1.288,2.281-2.764,3.303-4.429
		c1.019-1.664,2.013-3.355,2.979-5.074c2.039-3.972,4.027-8.536,5.96-13.691l7.57-22.388c-0.217-0.536-0.673-1.128-1.37-1.772
		c-0.7-0.644-1.799-0.967-3.302-0.967c-3.116,0-6.095,1.289-8.939,3.865c-2.847,2.577-5.423,5.826-7.731,9.745
		c-2.311,3.92-4.269,8.134-5.88,12.643c-1.611,4.51-2.713,8.725-3.302,12.643c-0.591,3.921-0.672,7.168-0.242,9.746
		C332.763,154.114,333.945,155.402,335.879,155.402z"/>
	<path id="XMLID_15_" style="fill:#414042;" d="M430.586,95.646c5.475,0,9.636,0.992,12.483,2.972
		c2.844,1.983,4.508,4.473,4.992,7.47c0.481,3-0.135,6.267-1.853,9.8c-1.718,3.533-4.348,6.855-7.891,9.96
		c-3.544,3.107-7.973,5.784-13.288,8.031c-5.315,2.249-11.303,3.589-17.96,4.017c0.214,2.572,0.67,5.008,1.37,7.311
		c0.697,2.303,1.743,4.31,3.14,6.021c1.395,1.714,3.114,3.081,5.155,4.097c2.039,1.018,4.455,1.526,7.248,1.526
		c2.361,0,4.857-0.456,7.49-1.37c2.63-0.911,5.235-2.307,7.811-4.187c2.578-1.878,5.044-4.212,7.41-7.006
		c2.359-2.792,4.455-6.122,6.279-9.987c0.428-0.859,0.912-1.422,1.45-1.691c0.538-0.267,1.048-0.322,1.532-0.162
		c0.481,0.162,0.805,0.54,0.966,1.128c0.16,0.591,0.079,1.317-0.242,2.174c-1.718,4.083-3.92,7.813-6.603,11.195
		c-2.687,3.383-5.773,6.295-9.261,8.731c-3.49,2.435-7.276,4.316-11.355,5.637c-4.082,1.321-8.322,1.98-12.725,1.98
		c-7.839,0-14.013-1.664-18.523-4.994c-4.51-3.327-7.489-7.514-8.939-12.563c-1.45-5.046-1.53-10.469-0.242-16.267
		c1.29-5.799,3.758-11.22,7.41-16.268c3.649-5.046,8.376-9.233,14.174-12.563C416.411,97.313,423.068,95.646,430.586,95.646z
		 M428.331,100.478c-2.899,0-5.612,0.994-8.134,2.98c-2.525,1.988-4.727,4.565-6.605,7.731c-1.88,3.169-3.41,6.712-4.59,10.631
		c-1.183,3.921-1.828,7.811-1.933,11.677c3.544-0.322,6.871-1.395,9.987-3.221c3.113-1.825,5.823-3.946,8.134-6.363
		c2.307-2.416,4.214-4.992,5.718-7.731c1.504-2.738,2.441-5.287,2.819-7.651c0.376-2.36,0.134-4.293-0.724-5.799
		C432.14,101.231,430.586,100.478,428.331,100.478z"/>
</g>
<rect id="XMLID_9_" style="fill:#F7941E;" width="70.5" height="238"/>
<rect id="XMLID_11_" x="507.5" style="fill:#F7941E;" width="70.5" height="238"/>
</svg>
