<?xml version="1.0" encoding="utf-8"?>
<!-- Generator: Adobe Illustrator 17.0.0, SVG Export Plug-In . SVG Version: 6.00 Build 0)  -->
<!DOCTYPE svg PUBLIC "-//W3C//DTD SVG 1.1//EN" "http://www.w3.org/Graphics/SVG/1.1/DTD/svg11.dtd">
<svg version="1.1" id="Layer_1" xmlns="http://www.w3.org/2000/svg" xmlns:xlink="http://www.w3.org/1999/xlink" x="0px" y="0px"
	 width="56.693px" height="56.693px" viewBox="0 0 56.693 56.693" enable-background="new 0 0 56.693 56.693" xml:space="preserve">
<g>
	<path fill="#474A56" d="M15.986,29.972l10.397,0.651c0.053,0.004,0.104,0.005,0.156,0.005c1.287,0,2.358-1.006,2.439-2.292
		c0.041-0.651-0.175-1.28-0.607-1.771c-0.433-0.491-1.031-0.781-1.682-0.822l-10.396-0.654c-1.346-0.082-2.511,0.949-2.595,2.288
		C13.613,28.721,14.64,29.885,15.986,29.972z M16.135,26.478l10.467,0.658c0.28,0.017,0.538,0.142,0.722,0.352
		c0.187,0.211,0.279,0.482,0.262,0.761c-0.035,0.554-0.496,0.985-1.048,0.985L16.075,28.58c-0.58-0.037-1.022-0.538-0.985-1.115
		C15.125,26.912,15.584,26.478,16.135,26.478z"/>
	<path fill="#474A56" d="M53.36,10.412c-0.003-0.097-0.017-0.191-0.04-0.284c-0.008-0.028-0.015-0.058-0.024-0.087
		c-0.035-0.109-0.08-0.216-0.141-0.312c-0.002-0.005-0.005-0.008-0.008-0.012c-0.059-0.093-0.132-0.176-0.212-0.252
		c-0.021-0.021-0.044-0.041-0.067-0.062c-0.082-0.068-0.171-0.13-0.268-0.18c-0.007-0.003-0.012-0.009-0.019-0.012
		c-0.002-0.001-0.004-0.001-0.006-0.002c-0.103-0.05-0.215-0.083-0.332-0.106c-0.033-0.007-0.065-0.009-0.098-0.014
		c-0.04-0.006-0.078-0.016-0.118-0.016L30.288,8.241c-0.258-0.122-0.54-0.194-0.833-0.209l-8.288-0.433l-0.119-0.003
		c-0.362,0-0.7,0.097-1.002,0.252l-1.248-0.047c-0.309-0.014-0.605,0.077-0.854,0.252L4,17.832c-0.029,0.02-0.052,0.046-0.08,0.068
		c-0.024,0.021-0.052,0.037-0.076,0.06c-0.009,0.007-0.016,0.018-0.025,0.027c-0.039,0.04-0.071,0.079-0.105,0.122
		c-0.025,0.031-0.05,0.06-0.072,0.093c-0.03,0.045-0.054,0.093-0.079,0.142c-0.017,0.033-0.037,0.066-0.051,0.104
		c-0.02,0.049-0.034,0.102-0.049,0.152c-0.01,0.037-0.023,0.073-0.03,0.111c-0.011,0.057-0.015,0.117-0.018,0.176
		c-0.002,0.028-0.009,0.058-0.009,0.086v28.125c0,0.727,0.56,1.332,1.285,1.39l33.94,2.666c0.036,0.003,0.072,0.004,0.108,0.004h0
		l0,0c0.095,0,0.188-0.012,0.281-0.03c0.029-0.006,0.056-0.016,0.084-0.023c0.062-0.018,0.125-0.037,0.184-0.062
		c0.033-0.014,0.063-0.031,0.094-0.047c0.053-0.027,0.104-0.058,0.154-0.092c0.03-0.021,0.059-0.044,0.087-0.067
		c0.021-0.016,0.043-0.03,0.063-0.048c0.024-0.021,0.042-0.049,0.063-0.071c0.018-0.021,0.04-0.034,0.058-0.056l13.232-15.75
		c0.211-0.253,0.327-0.568,0.327-0.898V10.466C53.368,10.447,53.361,10.431,53.36,10.412z M31.53,11.079l16.619,0.636l-2.018,1.6
		L31.496,12.49L31.53,11.079z M44.484,14.617l-2.306,1.825l-16.604-0.868l0.049-2.019L44.484,14.617z M20.236,9.763
		c0.022-0.432,0.378-0.771,0.854-0.771c0.001,0,0.002,0,0.002,0l8.289,0.431C29.6,9.435,29.8,9.531,29.946,9.693
		c0.146,0.162,0.221,0.371,0.208,0.608l-0.045,1.829l-5.101-0.265c-0.376-0.394-0.893-0.654-1.479-0.684l-3.324-0.173L20.236,9.763z
		 M14.313,12.916c0.022-0.434,0.378-0.772,0.854-0.772c0,0,0.002,0,0.003,0l8.288,0.43c0.451,0.024,0.797,0.409,0.773,0.878
		l-0.044,1.83l-9.919-0.516L14.313,12.916z M37.347,48.253L6.194,45.807V20.452l31.152,1.806V48.253z M38.292,19.52L8.884,17.813
		l2.276-1.597l29.364,1.535L38.292,19.52z M50.58,33.503L40.135,45.934V21.617l10.444-8.269V33.503z"/>
</g>
</svg>
