<?xml version="1.0" encoding="utf-8"?>
<!-- Generator: Adobe Illustrator 17.0.0, SVG Export Plug-In . SVG Version: 6.00 Build 0)  -->
<!DOCTYPE svg PUBLIC "-//W3C//DTD SVG 1.1//EN" "http://www.w3.org/Graphics/SVG/1.1/DTD/svg11.dtd">
<svg version="1.1" id="Layer_1" xmlns="http://www.w3.org/2000/svg" xmlns:xlink="http://www.w3.org/1999/xlink" x="0px" y="0px"
	 width="56.693px" height="56.693px" viewBox="0 0 56.693 56.693" enable-background="new 0 0 56.693 56.693" xml:space="preserve">
<g>
	<path fill="#474A56" d="M20.555,19.388c-0.108-0.007-0.219-0.008-0.33-0.008c-0.001,0-0.001,0-0.001,0l-0.212,0.001
		c-9.01,0-16.237,5.47-16.45,12.421c-0.006,0.09-0.006,0.191-0.006,0.281c0.009,3.755,2.163,7.365,5.805,9.807
		c-0.219,0.349-0.483,0.754-0.783,1.205c-0.37,0.566-0.757,1.168-1.094,1.764l-0.107,0.201c-0.256,0.48-0.544,1.021-0.591,1.77
		c-0.142,0.991,0.582,2.296,1.738,2.54l0.124,0.031c0.198,0.044,0.381,0.063,0.577,0.063h0.014l0.072-0.003
		c0.923-0.058,1.599-0.415,2.31-0.791l0.372-0.195c0.843-0.463,1.816-1.059,2.758-1.635c0.454-0.277,0.904-0.552,1.338-0.812
		c0.683-0.413,1.255-0.742,1.637-0.942c0.118-0.058,0.224-0.108,0.308-0.147c0.624,0.069,1.25,0.11,1.914,0.127l0.48,0.004
		c9.014-0.002,16.238-5.473,16.449-12.424c0.006-0.088,0.006-0.181,0.006-0.289C36.822,25.287,29.634,19.59,20.555,19.388z
		 M32.447,32.512c-0.051,4.477-5.443,8.118-12.018,8.118c-0.128,0-0.26-0.001-0.4-0.005c-0.578-0.011-1.182-0.054-1.749-0.123
		c-0.129-0.026-0.295-0.045-0.523-0.036c-0.908,0.062-1.544,0.404-2.214,0.763l-0.43,0.229c-0.26,0.144-0.534,0.303-0.819,0.471
		c0.053-0.205,0.09-0.425,0.102-0.665c0.076-0.795-0.371-1.885-1.316-2.325c-3.189-1.642-5.088-4.206-5.082-6.847l0.001-0.136
		c0.048-4.488,5.438-8.14,12.015-8.14c0.126,0,0.237,0.001,0.379,0.008c6.587,0.142,12.108,4.05,12.056,8.544V32.512z"/>
	<path fill="#474A56" d="M50.479,28.467l-0.094-0.178c-0.226-0.397-0.502-0.829-0.79-1.271c-0.137-0.204-0.263-0.396-0.377-0.573
		c2.537-1.808,4.026-4.408,4.032-7.117l-0.003-0.189c-0.16-5.185-5.484-9.246-12.117-9.246h-0.158c-0.085,0-0.172,0.001-0.216,0.004
		c-6.07,0.136-10.965,3.61-11.882,8.16c1.334,0.534,2.583,1.18,3.724,1.933c-0.012-0.115-0.03-0.23-0.031-0.347v-0.124
		c-0.036-2.973,3.841-5.667,8.32-5.764c0.08-0.004,0.155-0.005,0.24-0.005c4.446,0,8.228,2.514,8.261,5.577
		c0.003,1.768-1.288,3.49-3.418,4.589c-0.788,0.368-1.17,1.181-1.172,1.823c-0.006-0.003-0.011-0.006-0.017-0.009l-0.29-0.153
		c-0.493-0.265-1.004-0.538-1.82-0.59c-0.131,0-0.251,0.011-0.36,0.032c-0.388,0.046-0.803,0.076-1.207,0.084l-0.276,0.003
		c-1.24,0-2.424-0.201-3.494-0.546c0.924,1.336,1.619,2.791,2.045,4.334c0.479,0.044,0.963,0.074,1.458,0.074l0.355-0.003
		c0.447-0.011,0.873-0.039,1.292-0.083c0.035,0.016,0.069,0.033,0.104,0.05c0.289,0.151,0.695,0.384,1.174,0.674
		c0.308,0.184,0.629,0.381,0.955,0.58c0.683,0.417,1.388,0.848,2.002,1.186l0.257,0.135c0.519,0.275,1.057,0.558,1.861,0.607h0.011
		c0.166,0,0.32-0.017,0.544-0.069c0.94-0.199,1.669-1.25,1.542-2.194C50.897,29.249,50.663,28.812,50.479,28.467z"/>
</g>
</svg>
