<?xml version="1.0" encoding="utf-8"?>
<!-- Generator: Adobe Illustrator 16.0.4, SVG Export Plug-In . SVG Version: 6.00 Build 0)  -->
<!DOCTYPE svg PUBLIC "-//W3C//DTD SVG 1.1//EN" "http://www.w3.org/Graphics/SVG/1.1/DTD/svg11.dtd">
<svg version="1.1" id="Layer_1" xmlns="http://www.w3.org/2000/svg" xmlns:xlink="http://www.w3.org/1999/xlink" x="0px" y="0px"
	 width="56.693px" height="56.693px" viewBox="0 0 56.693 56.693" enable-background="new 0 0 56.693 56.693" xml:space="preserve">
<g>
	<path fill="#474A56" d="M28.63,28.82l-11.587,0c-0.421,0-0.761,0.34-0.762,0.761c0,0.209,0.086,0.4,0.224,0.538
		c0.137,0.137,0.328,0.222,0.538,0.223l11.587-0.001c0.42,0.002,0.76-0.339,0.76-0.761C29.39,29.16,29.05,28.82,28.63,28.82z"/>
	<path fill="#474A56" d="M28.63,33.386l-11.587-0.001c-0.419,0.001-0.761,0.342-0.761,0.761c0,0.211,0.085,0.4,0.223,0.539
		c0.138,0.138,0.328,0.223,0.539,0.223h11.585c0.42,0,0.761-0.341,0.761-0.762C29.389,33.726,29.049,33.385,28.63,33.386z"/>
	<path fill="#474A56" d="M28.628,37.95l-11.584,0.001c-0.422-0.001-0.762,0.34-0.761,0.761c0,0.211,0.085,0.4,0.223,0.539
		c0.137,0.137,0.328,0.223,0.539,0.223h11.585c0.419,0,0.76-0.342,0.76-0.761C29.39,38.292,29.049,37.95,28.628,37.95z"/>
	<path fill="#474A56" d="M44.929,28.82H33.341c-0.419,0-0.76,0.341-0.76,0.76c0,0.21,0.084,0.401,0.223,0.539
		s0.328,0.222,0.538,0.222l11.587,0.002c0.419-0.002,0.76-0.342,0.761-0.762C45.688,29.16,45.348,28.82,44.929,28.82z"/>
	<path fill="#474A56" d="M44.928,33.385l-11.586-0.001c-0.421,0.002-0.761,0.342-0.761,0.762c0,0.211,0.086,0.4,0.223,0.537
		c0.139,0.139,0.328,0.225,0.539,0.225h11.585c0.419,0,0.761-0.341,0.761-0.761C45.688,33.726,45.348,33.386,44.928,33.385z"/>
	<path fill="#474A56" d="M44.928,37.95l-11.585,0.002c-0.421-0.001-0.762,0.34-0.762,0.762c0,0.209,0.086,0.398,0.223,0.537
		c0.138,0.137,0.327,0.223,0.538,0.223h11.585c0.42,0,0.761-0.342,0.762-0.762C45.688,38.292,45.347,37.95,44.928,37.95z"/>
	<path fill="#474A56" d="M48.741,13.035l-38.53-0.001c-0.739,0.001-1.338,0.597-1.342,1.338l-0.007,1.757l-3.975-0.003H4.886
		c-0.354,0-0.696,0.141-0.947,0.392c-0.253,0.252-0.394,0.594-0.395,0.951l0.001,24.463c-0.001,1.305,0.52,4.342,5.33,4.34
		l39.867,0.002c2.394,0,4.34-1.949,4.341-4.342V17.373C53.083,14.98,51.135,13.034,48.741,13.035z M8.857,42.103
		c0,0.174-0.031,0.338-0.08,0.493c-0.181,0.576-0.662,0.991-1.234,0.991c-0.726,0-1.314-0.664-1.314-1.484
		c0-0.008,0.002-0.016,0.002-0.023c-0.001-0.051-0.002-0.102-0.002-0.147V18.811l2.628,0.002V42.103z M50.397,41.933
		c0,0.912-0.742,1.655-1.655,1.654h-37.48c0.109-0.258,0.197-0.506,0.246-0.717c0.022-0.096,0.033-0.196,0.032-0.296l0-25.096
		l0.008-1.76l37.194,0c0.912,0,1.655,0.743,1.655,1.655V41.933z"/>
	<path fill="#474A56" d="M45.413,20.049L16.643,20.05c-0.21-0.001-0.381,0.17-0.38,0.38l-0.001,4.584c0,0.1,0.041,0.197,0.112,0.27
		c0.071,0.07,0.168,0.11,0.268,0.111l28.773-0.001c0.209,0,0.379-0.169,0.379-0.38l0.001-4.584
		C45.794,20.228,45.616,20.05,45.413,20.049z"/>
</g>
</svg>
