<?xml version="1.0" encoding="utf-8"?>
<!-- Generator: Adobe Illustrator 16.0.4, SVG Export Plug-In . SVG Version: 6.00 Build 0)  -->
<!DOCTYPE svg PUBLIC "-//W3C//DTD SVG 1.1//EN" "http://www.w3.org/Graphics/SVG/1.1/DTD/svg11.dtd">
<svg version="1.1" id="Layer_1" xmlns="http://www.w3.org/2000/svg" xmlns:xlink="http://www.w3.org/1999/xlink" x="0px" y="0px"
	 width="56.693px" height="56.693px" viewBox="0 0 56.693 56.693" enable-background="new 0 0 56.693 56.693" xml:space="preserve">
<g>
	<path fill="#474A56" d="M53.455,31.169c-1.845-1.788-4.095-3.051-6.514-3.654c-0.062-0.033-0.13-0.053-0.2-0.053h-0.221
		c-0.068,0-0.137,0.019-0.199,0.052c-0.73,0.391-1.73,0.617-2.748,0.617c-1.016,0-2.02-0.227-2.75-0.617
		c-0.062-0.033-0.131-0.052-0.199-0.052h-0.159c-0.032,0-0.065,0.005-0.097,0.011c-1.077,0.256-2.117,0.649-3.108,1.152
		c-0.511,1.776-1.491,3.471-2.815,4.772h18.718c0.231,0,0.421-0.188,0.421-0.422v-1.502C53.583,31.36,53.538,31.251,53.455,31.169z"
		/>
	<path fill="#474A56" d="M38.845,20.801c0,0.451,0.346,0.82,0.771,0.82c0.006,0,0.01,0,0.015,0c0.159,2.162,1.863,4.324,3.942,4.324
		c2.08,0,3.782-2.162,3.943-4.324c0.004,0,0.008,0,0.012,0c0.428,0,0.775-0.369,0.775-0.82c0-0.334-0.189-0.621-0.458-0.75
		c0.155-0.483,0.241-1.004,0.241-1.547c0-2.643-2.02-4.785-4.514-4.785c-2.493,0-4.514,2.143-4.514,4.785
		c0,0.543,0.086,1.063,0.242,1.547C39.031,20.18,38.845,20.467,38.845,20.801z"/>
	<path fill="#474A56" d="M20.533,28.487c-0.86-0.416-1.757-0.743-2.678-0.972c-0.062-0.033-0.131-0.053-0.2-0.053h-0.22
		c-0.068,0-0.137,0.019-0.198,0.052c-0.732,0.391-1.732,0.617-2.749,0.617s-2.021-0.227-2.751-0.617
		c-0.062-0.033-0.13-0.052-0.199-0.052h-0.159c-0.032,0-0.065,0.005-0.097,0.011c-2.484,0.59-4.791,1.869-6.679,3.696
		c-0.08,0.082-0.126,0.191-0.126,0.305v1.502c0,0.234,0.188,0.422,0.422,0.422h18.485C22.026,32.063,21.032,30.31,20.533,28.487z"/>
	<path fill="#474A56" d="M9.759,20.801c0,0.451,0.346,0.82,0.771,0.82c0.006,0,0.01,0,0.016,0c0.159,2.162,1.861,4.324,3.942,4.324
		c2.079,0,3.782-2.162,3.942-4.324c0.004,0,0.008,0,0.012,0c0.429,0,0.774-0.369,0.774-0.82c0-0.334-0.188-0.621-0.456-0.75
		c0.154-0.483,0.24-1.004,0.24-1.547c0-2.643-2.021-4.785-4.513-4.785c-2.493,0-4.515,2.143-4.515,4.785
		c0,0.543,0.086,1.063,0.242,1.547C9.946,20.18,9.759,20.467,9.759,20.801z"/>
	<path fill="#474A56" d="M20.839,25.034c0,0.775,0.59,1.402,1.319,1.402c0.009,0,0.017-0.002,0.023-0.002
		c0.103,1.387,0.576,2.77,1.316,3.963c0.293,0.471,0.631,0.904,0.999,1.303c1.184,1.275,2.727,2.121,4.418,2.121
		c1.807,0,3.445-0.961,4.656-2.385c0.147-0.174,0.289-0.354,0.424-0.541c0.931-1.293,1.535-2.875,1.654-4.461
		c0.006,0,0.015,0.002,0.023,0.002c0.729,0,1.319-0.627,1.319-1.402c0-0.568-0.321-1.059-0.782-1.277
		c0.267-0.829,0.413-1.715,0.413-2.641c0-4.516-3.45-8.176-7.708-8.176s-7.708,3.66-7.708,8.176c0,0.926,0.147,1.812,0.413,2.641
		C21.159,23.975,20.839,24.465,20.839,25.034z"/>
	<path fill="#474A56" d="M34.667,36.12c-0.104-0.059-0.222-0.086-0.342-0.086H33.95c-0.118,0-0.236,0.027-0.339,0.084
		c-1.249,0.67-2.96,1.053-4.696,1.053s-3.447-0.385-4.695-1.053c-0.105-0.057-0.223-0.084-0.34-0.084h-0.273
		c-0.055,0-0.111,0.004-0.165,0.018c-4.241,1.004-8.184,3.188-11.401,6.312c-0.141,0.135-0.22,0.32-0.22,0.514v2.568
		c0,0.396,0.321,0.717,0.72,0.717h32.752c0.396,0,0.717-0.32,0.717-0.717v-2.568c0-0.193-0.078-0.379-0.218-0.514
		C42.643,39.306,38.8,37.151,34.667,36.12z"/>
</g>
</svg>
