<?xml version="1.0" encoding="utf-8"?>
<!-- Generator: Adobe Illustrator 16.0.4, SVG Export Plug-In . SVG Version: 6.00 Build 0)  -->
<!DOCTYPE svg PUBLIC "-//W3C//DTD SVG 1.1//EN" "http://www.w3.org/Graphics/SVG/1.1/DTD/svg11.dtd">
<svg version="1.1" id="Layer_1" xmlns="http://www.w3.org/2000/svg" xmlns:xlink="http://www.w3.org/1999/xlink" x="0px" y="0px"
	 width="56.693px" height="56.693px" viewBox="0 0 56.693 56.693" enable-background="new 0 0 56.693 56.693" xml:space="preserve">
<g>
	<path fill="#474A56" d="M24.178,23.944c0-0.328-0.158-0.639-0.425-0.83l-8.622-6.266c-0.312-0.227-0.729-0.26-1.073-0.083
		c-0.345,0.175-0.562,0.529-0.562,0.917v3.86H5.918c-1.326,0-2.402,1.075-2.402,2.401c0,1.328,1.076,2.402,2.402,2.402h7.578v3.862
		c0,0.387,0.217,0.742,0.562,0.918c0.147,0.074,0.308,0.111,0.468,0.111c0.214,0,0.426-0.066,0.605-0.195l8.622-6.264
		C24.02,24.584,24.178,24.274,24.178,23.944z"/>
	<path fill="#474A56" d="M26.981,24.389c0,0.8,0.61,1.447,1.363,1.447c0.009,0,0.017-0.002,0.024-0.002
		c0.281,3.813,3.285,7.627,6.953,7.627c3.666,0,6.67-3.814,6.951-7.627c0.009,0,0.017,0.002,0.025,0.002
		c0.753,0,1.363-0.647,1.363-1.447c0-0.587-0.332-1.095-0.809-1.319c0.276-0.856,0.428-1.771,0.428-2.728
		c0-4.662-3.562-8.441-7.959-8.441c-4.397,0-7.961,3.779-7.961,8.441c0,0.956,0.152,1.871,0.428,2.728
		C27.312,23.294,26.981,23.802,26.981,24.389z"/>
	<path fill="#474A56" d="M52.748,42.284c-3.252-3.158-7.22-5.383-11.487-6.449c-0.107-0.057-0.229-0.09-0.354-0.09h-0.387
		c-0.122,0-0.243,0.031-0.351,0.088c-1.288,0.693-3.056,1.088-4.848,1.088c-1.794,0-3.561-0.396-4.85-1.088
		c-0.109-0.059-0.229-0.088-0.352-0.088h-0.28c-0.058,0-0.116,0.008-0.171,0.021c-4.379,1.035-8.451,3.289-11.774,6.518
		c-0.145,0.139-0.226,0.332-0.226,0.531v2.65c0,0.41,0.332,0.742,0.742,0.742h33.819c0.409,0,0.741-0.332,0.741-0.742v-2.65
		C52.973,42.616,52.892,42.423,52.748,42.284z"/>
</g>
</svg>
